<svg id="Grupo_1004" data-name="Grupo 1004" xmlns="http://www.w3.org/2000/svg" xmlns:xlink="http://www.w3.org/1999/xlink" width="128.467" height="202.787" viewBox="0 0 128.467 202.787">
  <defs>
    <clipPath id="clip-path">
      <rect id="Rect치ngulo_434" data-name="Rect치ngulo 434" width="128.467" height="202.786" fill="none"/>
    </clipPath>
    <clipPath id="clip-path-2">
      <path id="Trazado_1337" data-name="Trazado 1337" d="M65.558,0,53.849,22.874l3.281,2.345L39.152,57.683s-3.433-.033-5.536,0L8.6,101.4l115.2-2.872-17.39-26.486-2.457,3.027-3.922-6.189,3.649-1.009s2.81-5.722,2.727-5.962S65.558,0,65.558,0Z" transform="translate(-8.595)" fill="none"/>
    </clipPath>
  </defs>
  <g id="Grupo_991" data-name="Grupo 991">
    <g id="Grupo_990" data-name="Grupo 990" clip-path="url(#clip-path)">
      <path id="Trazado_1325" data-name="Trazado 1325" d="M13.047,219.15v39.618l11.63.146c4.071,0,7.286-2.77,7.286-8.423V227.124c0-6.363-2.536-8.061-6.784-7.973ZM0,205.67H25.114c12.169-.19,19.9,8.319,19.9,21.454v23.367c0,12.541-8.567,21.9-20.37,21.9L0,272.087Z" transform="translate(0 -84.981)" fill="#fff"/>
      <path id="Trazado_1326" data-name="Trazado 1326" d="M116.3,240.693c-1.333-2.658.266-4.1,1.518-5.9,3.227-4.637,8.244-14.188,2.811-23.108-5.371-8.815-18.84-7.655-18.84-7.655-7.161,0-14.854.38-19.887,9.522-3.657,6.642,1.063,16.084,3.916,20.752,1.073,1.756,2.352,3.293,1.541,5.461a34.094,34.094,0,0,1-3.215,6.022c-4.753,7.476-8.573,27.7,17.658,27.7s22.4-20.794,17.043-28.622a36.783,36.783,0,0,1-2.546-4.176m-8.157,8.219c1.665,2.9,3.756,5.267,3.756,8.828a4.39,4.39,0,0,1-4.528,3.716H96.232a4.386,4.386,0,0,1-4.524-3.716c0-3.561,2.087-5.931,3.753-8.828,2.179-3.842,3.673-6.349,3.673-11.136,0-4.28-1.835-5.974-3.673-9.217-1.665-2.9-3.753-5.267-3.753-8.826a4.385,4.385,0,0,1,4.524-3.719H107.37a4.389,4.389,0,0,1,4.528,3.719c0,3.559-2.091,5.928-3.756,8.826-1.838,3.243-3.669,4.938-3.669,9.217,0,4.788,1.49,7.294,3.669,11.136" transform="translate(-33.291 -84.284)" fill="#fff" fill-rule="evenodd"/>
      <path id="Trazado_1327" data-name="Trazado 1327" d="M157.852,261.568l.011,9.469a64.353,64.353,0,0,0,16.238,2.435c5.793,0,9.862-.446,14.2-4.3,5.7-5.056,5.384-14.39,5.384-14.39V243.811s-.293-6.174-4.832-9.467-8.319-3.357-12.125-3.357H169.16V216.708h21.881V206.19H158.1v36.219H179.1a3.563,3.563,0,0,1,2.674.925c.981,1.082.861,2.621.861,4.361v8.273s.2,3.2-1.832,4.627c-1.49,1.047-5.312.974-5.312.974Z" transform="translate(-65.224 -85.197)" fill="#fff" fill-rule="evenodd"/>
      <path id="Trazado_1328" data-name="Trazado 1328" d="M0,336.327H2.905v.565H.633v1.746H2.715v.563H.633v1.9H2.943v.562H0Z" transform="translate(0 -138.97)" fill="#fff"/>
      <path id="Trazado_1329" data-name="Trazado 1329" d="M37.49,340.241a.728.728,0,0,0-.19-.522,1.939,1.939,0,0,0-.476-.359,6.322,6.322,0,0,0-.621-.293,3.38,3.38,0,0,1-.621-.333,1.679,1.679,0,0,1-.476-.48,1.279,1.279,0,0,1-.191-.729,1.23,1.23,0,0,1,.434-.99,1.868,1.868,0,0,1,1.235-.366,4.741,4.741,0,0,1,.847.069,2.157,2.157,0,0,1,.6.175l-.191.563a2.508,2.508,0,0,0-.515-.163,3.344,3.344,0,0,0-.766-.08,1.1,1.1,0,0,0-.755.226.68.68,0,0,0-.252.528.69.69,0,0,0,.191.5,1.923,1.923,0,0,0,.476.356c.191.1.4.206.621.309a3.665,3.665,0,0,1,.621.354,1.889,1.889,0,0,1,.477.484,1.224,1.224,0,0,1,.19.7,1.5,1.5,0,0,1-.121.617,1.341,1.341,0,0,1-.359.474,1.657,1.657,0,0,1-.572.3,2.541,2.541,0,0,1-.763.107,4.107,4.107,0,0,1-.945-.091,2.536,2.536,0,0,1-.58-.191l.215-.564a2.541,2.541,0,0,0,.517.188,2.933,2.933,0,0,0,.772.092,2.2,2.2,0,0,0,.471-.049,1.038,1.038,0,0,0,.381-.16.782.782,0,0,0,.35-.675" transform="translate(-14.372 -138.905)" fill="#fff"/>
      <path id="Trazado_1330" data-name="Trazado 1330" d="M73.6,336.89H71.943v4.774h-.634V336.89H69.648v-.563H73.6Z" transform="translate(-28.779 -138.97)" fill="#fff"/>
      <path id="Trazado_1331" data-name="Trazado 1331" d="M109.122,336.327h.609v3.56a2.457,2.457,0,0,1-.124.831,1.5,1.5,0,0,1-.358.575,1.449,1.449,0,0,1-.56.332,2.308,2.308,0,0,1-.726.107,2.094,2.094,0,0,1-1.424-.427,1.645,1.645,0,0,1-.481-1.3v-3.682h.632v3.385a2.56,2.56,0,0,0,.08.682,1.119,1.119,0,0,0,.24.449.928.928,0,0,0,.4.249,1.928,1.928,0,0,0,.56.076,1.059,1.059,0,0,0,.887-.34,1.816,1.816,0,0,0,.267-1.116Z" transform="translate(-43.823 -138.97)" fill="#fff"/>
      <path id="Trazado_1332" data-name="Trazado 1332" d="M142.855,336.283a2.593,2.593,0,0,1,.325-.034c.117-.008.243-.012.373-.015s.255-.006.38-.009.241,0,.347,0a2.821,2.821,0,0,1,1.108.2,2.027,2.027,0,0,1,.775.553,2.323,2.323,0,0,1,.455.85,3.8,3.8,0,0,1,.147,1.09,3.757,3.757,0,0,1-.141,1.042,2.535,2.535,0,0,1-.444.884,2.19,2.19,0,0,1-.8.617,2.712,2.712,0,0,1-1.179.232l-.318,0c-.127,0-.262-.008-.4-.018l-.38-.018a1.853,1.853,0,0,1-.252-.022Zm1.442.5h-.218c-.079,0-.156,0-.231.009l-.212.012c-.063.006-.113.011-.148.017v4.27c.028,0,.076.008.145.012l.222.006c.075,0,.149.006.221.009l.145,0a1.971,1.971,0,0,0,.9-.184,1.548,1.548,0,0,0,.579-.492,1.981,1.981,0,0,0,.31-.709,3.69,3.69,0,0,0,.09-.827,3.529,3.529,0,0,0-.082-.751,1.964,1.964,0,0,0-.29-.681,1.589,1.589,0,0,0-.552-.5,1.756,1.756,0,0,0-.873-.2" transform="translate(-59.027 -138.926)" fill="#fff"/>
      <rect id="Rect치ngulo_433" data-name="Rect치ngulo 433" width="0.63" height="5.335" transform="translate(105.583 197.357)" fill="#fff"/>
      <path id="Trazado_1333" data-name="Trazado 1333" d="M211.409,338.932a3.229,3.229,0,0,1,.566-2.047,1.921,1.921,0,0,1,1.608-.712,2.226,2.226,0,0,1,.976.2,1.812,1.812,0,0,1,.682.561,2.4,2.4,0,0,1,.4.868,4.426,4.426,0,0,1,.131,1.134,3.231,3.231,0,0,1-.567,2.047,1.958,1.958,0,0,1-1.622.71,2.172,2.172,0,0,1-.964-.2,1.839,1.839,0,0,1-.68-.56,2.456,2.456,0,0,1-.4-.869,4.638,4.638,0,0,1-.13-1.131m.673,0a3.821,3.821,0,0,0,.086.838,2.338,2.338,0,0,0,.271.7,1.436,1.436,0,0,0,.469.48,1.236,1.236,0,0,0,.674.179,1.317,1.317,0,0,0,1.114-.537,2.779,2.779,0,0,0,.4-1.658,3.738,3.738,0,0,0-.089-.836,2.2,2.2,0,0,0-.272-.7,1.47,1.47,0,0,0-.474-.48,1.271,1.271,0,0,0-.684-.18,1.294,1.294,0,0,0-1.1.538,2.78,2.78,0,0,0-.4,1.658" transform="translate(-87.354 -138.906)" fill="#fff"/>
      <path id="Trazado_1334" data-name="Trazado 1334" d="M36.593,68.307c.572,0,1.157-.306,1.721.042a.864.864,0,0,0,.4.042c.5,0,1,.02,1.495,0,2.037-.1,4.079-.154,6.1-.4.361-.046.722-.077,1.083-.1.092,0,.186.068.323.121a3.427,3.427,0,0,1-.276.366,13.388,13.388,0,0,0-3.035,4.468,1.826,1.826,0,0,1-.188.362.929.929,0,0,1-.5.4c.334.168.935,1.844,1.518.049-.35.026-.517-.143-.409-.525a4.07,4.07,0,0,1,.223-.569,12.5,12.5,0,0,1,2.476-3.626,1.858,1.858,0,0,1,1.212-.681.831.831,0,0,0,.516-.284,1.588,1.588,0,0,1,.951-.471c1.18-.209,2.364-.417,3.541-.652A87.645,87.645,0,0,0,62.3,64.671a1.41,1.41,0,0,1,.766-.124,1.365,1.365,0,0,1-.14.319A16.125,16.125,0,0,0,61.16,67.6a1.263,1.263,0,0,1-.062.123,8.564,8.564,0,0,1-.866,1.172c.759.167,2.067-.414,2.717.167a1.348,1.348,0,0,1,.134-.154c.021-.013.029-.035.043-.055a.6.6,0,0,0,.007-.644.59.59,0,0,0-.647-.265c-.175.043-.341.127-.517.165a.312.312,0,0,1-.395-.175.447.447,0,0,1,.017-.134,12.723,12.723,0,0,1,1.841-2.844,1.275,1.275,0,0,1,.946-.462.746.746,0,0,0,.785-.772,3.194,3.194,0,0,1,.489-1.4q1.463-2.608,2.932-5.216c.332-.591.661-1.184,1-1.776.1-.168.17-.376.434-.452a1.027,1.027,0,0,1,.231.192,5.409,5.409,0,0,1,.345.583q1.444,2.775,2.874,5.556c.35.687.678,1.381,1.026,2.073.086.174.14.389.381.434.273-.1.327-.368.44-.582q2.852-5.375,5.7-10.753a4.287,4.287,0,0,1,1.006-1.436.583.583,0,0,0-.195-1.063,2.313,2.313,0,0,1-1.026-.744,60.3,60.3,0,0,0-5.4-5.257,79.333,79.333,0,0,0-8.412-6.221,125.5,125.5,0,0,0-11.521-6.544c-4.325-2.2-8.743-4.2-13.205-6.1-.123-.055-.251-.109-.378-.153a.315.315,0,0,0-.452.174,2.139,2.139,0,0,1-.634.779.4.4,0,0,0-.048.655,2.728,2.728,0,0,1,.515,1.09q2.583,8.414,5.159,16.827c.559,1.82,1.123,3.639,1.664,5.463a3.781,3.781,0,0,1,.024,2.2c-.307,1-.587,2-.868,3a2.741,2.741,0,0,1-.529,1.092,1.166,1.166,0,0,0-.245.4,2.5,2.5,0,0,1-.782,1.09,29.45,29.45,0,0,1-3.358,2.655,1.509,1.509,0,0,1-.616.255c-.513.076-1.035.105-1.555.148-.29.023-.584.029-.883.05-.992.077-1.98.156-2.977.231-.541.04-1.082.081-1.624.114-.2.011-.4.065-.578-.108a1.946,1.946,0,0,1,.387-.8c.133-.238.294-.458.421-.7s.37-.462.383-.8a5.821,5.821,0,0,0-1.334-.238,5.816,5.816,0,0,1-2.1-.5.738.738,0,0,0-1.1.435,1,1,0,0,0-.065.193,2.12,2.12,0,0,1-.434.837c-.661.836-1.338,1.659-2,2.49a.725.725,0,0,1-.956.26,1.192,1.192,0,0,0-.255-.1.583.583,0,0,0-.751.628,1.861,1.861,0,0,0,.057.331,1.066,1.066,0,0,1-.269,1.006c-.136.153-.255.32-.387.475-.979,1.192-1.964,2.378-2.935,3.573a2.131,2.131,0,0,0-.462.736c-.195.746-.319,1.507-.472,2.263a.583.583,0,0,0,.158.563c.2.211.4.431.61.64a1.539,1.539,0,0,1,.476.8.928.928,0,0,0,.113.315.578.578,0,0,0,.769.227.6.6,0,0,0,.229-.82,1.04,1.04,0,0,0-.222-.254.689.689,0,0,1-.238-.61c.043-.472.089-.944.161-1.415a1.289,1.289,0,0,1,.183-.432c.089-.158.2-.3.3-.452.752-1.067.482-.84,1.7-1.35a2.119,2.119,0,0,1,1.187-.141c1.259.187,2.517.346,3.778.5a2.781,2.781,0,0,1,.963.291c.479.257.975.489,1.439.769a.8.8,0,0,0,1-.044c.511-.377,1.035-.734,1.563-1.084a1.337,1.337,0,0,1,.606-.291m32.541-13.05c-1.317,2.247-2.565,4.531-3.848,6.8-.094.168-.149.387-.465.465-.05-.259-.113-.48-.144-.7a33.059,33.059,0,0,0-2.071-7.586A61.953,61.953,0,0,0,56.479,42.59a71.6,71.6,0,0,0-7.589-9.661c-.945-1-1.947-1.96-2.922-2.94-.138-.139-.264-.293-.457-.509a.874.874,0,0,1,.567.2c.831.546,1.664,1.09,2.5,1.644,2.3,1.538,4.56,3.126,6.695,4.885,1.081.894,2.142,1.819,3.174,2.766a50.455,50.455,0,0,1,8.33,10.169c.733,1.145,1.419,2.32,2.121,3.48.086.136.151.285.24.414a1.9,1.9,0,0,1,0,2.216M41.646,25.646a1.947,1.947,0,0,1,.188-.294c.24.089.43.15.612.228,4.507,1.918,8.955,3.954,13.313,6.18a119.693,119.693,0,0,1,12.218,7.092,70.975,70.975,0,0,1,7,5.271c1.3,1.126,2.546,2.32,3.79,3.51.623.591,1.189,1.239,1.766,1.884a2.7,2.7,0,0,1,.468.734,1.656,1.656,0,0,1-.137,1.5c-1.465,2.733-2.909,5.48-4.363,8.221q-.6,1.143-1.209,2.287c-.106.194-.166.423-.425.556a1.015,1.015,0,0,1-.208-.225c-.179-.34-.336-.691-.513-1.033q-1.539-2.993-3.088-5.979c-.072-.143-.144-.281-.221-.422a.955.955,0,0,1-.081-.845.616.616,0,0,0-.413-.8,1.157,1.157,0,0,1-.8-.672c-.607-1.035-1.212-2.07-1.848-3.091a57.289,57.289,0,0,0-5.7-7.772,50.477,50.477,0,0,0-4.626-4.592,85.581,85.581,0,0,0-9.477-7.052c-1.836-1.205-3.7-2.382-5.543-3.571-.153-.1-.307-.192-.457-.3-.349-.255-.391-.409-.238-.812M47.61,55.482c.154-.615.33-1.224.5-1.836.129-.459.261-.914.4-1.37a2.915,2.915,0,0,1,.455-1.053.472.472,0,0,0-.015-.677,2.417,2.417,0,0,1-.523-1.09Q45.129,38.7,41.839,27.945c-.077-.25-.239-.5-.124-.782.252-.039.394.136.541.256.539.418,1.071.844,1.591,1.281a54.972,54.972,0,0,1,4.137,3.932,70.148,70.148,0,0,1,7.695,9.58A62.99,62.99,0,0,1,62.09,54.17a34.779,34.779,0,0,1,2.021,6.905c.058.379.123.76.16,1.141a1.963,1.963,0,0,1-.028.537.357.357,0,0,1-.414.276,3.407,3.407,0,0,1-.721-.176c-.554-.2-1.1-.427-1.648-.643l-12.387-4.9a3.79,3.79,0,0,0-.38-.156c-.588-.164-.836-.667-1.086-1.145a.826.826,0,0,1,0-.527M45.98,58a3.276,3.276,0,0,1,.413-.349,1.119,1.119,0,0,1,.44-.16,4.79,4.79,0,0,1,.873-.057,2.867,2.867,0,0,1,.787.151c.683.244,1.355.518,2.027.782q6.066,2.4,12.129,4.8a6.284,6.284,0,0,1,.611.282.22.22,0,0,1-.031.415,5.245,5.245,0,0,1-.633.238,88.108,88.108,0,0,1-10.474,2.587c-.621.113-1.248.221-1.871.332a1.767,1.767,0,0,1-1.128-.1.827.827,0,0,0-1.006.121,1.888,1.888,0,0,1-1.187.442,72.685,72.685,0,0,1-7.86.463,1.154,1.154,0,0,1-1.175-.625,1.069,1.069,0,0,0-.787-.579A2.416,2.416,0,0,1,36.2,66.3c-.423-.309-.849-.612-1.261-.924a3.78,3.78,0,0,1-.359-.351c.094-.278.313-.307.495-.388.809-.35,1.627-.681,2.428-1.052A33.82,33.82,0,0,0,45.98,58M34.164,61.569c1.694-.126,3.379-.259,5.071-.381.405-.029.813-.039,1.219-.049a1.311,1.311,0,0,1,.246.043c-.021.261-.221.315-.368.394-.888.487-1.774.99-2.691,1.436-.849.413-1.735.765-2.6,1.141a4.163,4.163,0,0,1-.447.163.861.861,0,0,1-1.018-.325,1.169,1.169,0,0,1-.116-.17A10.126,10.126,0,0,0,32,61.872a1.054,1.054,0,0,1-.11-.2c.178-.383.566-.557.878-.8a6.877,6.877,0,0,1,1.093-.772c-.067.6-.519.886-.561,1.38a1.5,1.5,0,0,0,.323.1,3.869,3.869,0,0,0,.541-.01m-5.21.181q.8-1.01,1.624-2.012a.924.924,0,0,1,.813-.4.785.785,0,0,0,.669-.283.9.9,0,0,1,.8-.276,9.234,9.234,0,0,1,1.31.187c.062.248-.11.316-.229.4q-1.163.884-2.335,1.758a1.112,1.112,0,0,0-.217.16,2.026,2.026,0,0,1-1.495.673c-.248.031-.5.077-.741.1a1.286,1.286,0,0,1-.29-.038.832.832,0,0,1,.089-.274m-5.117,7.888a2.312,2.312,0,0,0-.452,1.388,6.007,6.007,0,0,1-.106.736,1.5,1.5,0,0,1-.132.316,1.2,1.2,0,0,1-.7-.622.4.4,0,0,1,0-.32c.267-.518.546-1.036.843-1.54.137-.233.228-.245.67-.261a1.136,1.136,0,0,1-.119.3m-.039-1.3c-.35.338-.691.689-1.079,1.069a.846.846,0,0,1,.212-.809l.985-1.206c.474-.579.943-1.158,1.421-1.73a5.716,5.716,0,0,1,.434-.421,1.959,1.959,0,0,1,.022.333c-.062.288-.13.574-.2.857a1.133,1.133,0,0,1-.361.562c-.483.445-.959.891-1.432,1.346M27.05,67a1.734,1.734,0,0,1-1.006.857c-.325.1-.632.255-.95.372a1.971,1.971,0,0,1-.4.053,3.719,3.719,0,0,1,.29-.395c.158-.158.338-.3.5-.462a1.194,1.194,0,0,1,.748-.415,4.58,4.58,0,0,0,.894-.3A1.464,1.464,0,0,1,27.05,67m-.176-.847a1.148,1.148,0,0,1,.282-.856,1.567,1.567,0,0,1-.282.856m-.276-1.34a2.184,2.184,0,0,1,.894-1.877,1.26,1.26,0,0,1,.431-.184c.665-.119,1.335-.222,2-.328a3.04,3.04,0,0,1,.38,0,1,1,0,0,1-.055.268Q29.022,64.345,27.785,66c-.033.045-.107.063-.184.108a.665.665,0,0,1-.038-.206,4.084,4.084,0,0,1,.732-1.8,8,8,0,0,0,.559-.846.843.843,0,0,0,.115-.314.223.223,0,0,0-.1-.163.2.2,0,0,0-.181-.022,2.673,2.673,0,0,0-.428.337A17.545,17.545,0,0,0,26.6,64.809m.83,2.692a.965.965,0,0,1,.069-.3c.119-.189.265-.366.395-.547q1.534-2.067,3.074-4.137c.119-.157.255-.3.429-.509a2.539,2.539,0,0,1,.38.314c.346.42.681.838,1,1.275a1.263,1.263,0,0,1,.245,1.026,1.32,1.32,0,0,0,.063.59.789.789,0,0,1-.23.864,3.324,3.324,0,0,1-1.082.68,8.082,8.082,0,0,1-1.952.553c-.711.108-1.435.168-2.152.243a1.043,1.043,0,0,1-.243-.052m6.861,1.736a.592.592,0,0,1-.691.049c-.376-.206-.768-.388-1.143-.6a3.5,3.5,0,0,0-1.47-.468c-.446-.037-.886-.123-1.329-.189a1.724,1.724,0,0,1,.908-.363,7.813,7.813,0,0,0,1.79-.616,2.817,2.817,0,0,0,1.222-1.135,2.171,2.171,0,0,1,.137-.234c.195-.269.369-.332.63-.148.61.427,1.209.866,1.794,1.329a.644.644,0,0,1,.094.912,1.518,1.518,0,0,1-.337.331c-.532.38-1.073.751-1.605,1.13" transform="translate(-9.008 -10.263)" fill="#fff"/>
      <path id="Trazado_1335" data-name="Trazado 1335" d="M139.664,121.094a2.142,2.142,0,0,1-.258-.836c-.175-1.252-.341-2.512-.56-3.759a14.923,14.923,0,0,0-1.2-3.886,8.113,8.113,0,0,0-1.658-2.389,6.785,6.785,0,0,0-3.574-1.814,14.841,14.841,0,0,0-4.934-.082c-1.364.2-2.725.435-4.091.649q-3.156.5-6.315.986c-.756.116-1.519.219-2.282.347a1.411,1.411,0,0,1-1.509-.683c-.188-.283-.368-.571-.55-.857a11,11,0,0,0-2.485-2.77,16.3,16.3,0,0,0-4.571-2.505,20.03,20.03,0,0,0-5.509-1.109,11.34,11.34,0,0,0-2.236.049c-1.015.124-2.03.234-3.038.359-.787.1-1.576.18-2.357.325A25.158,25.158,0,0,0,81.49,108.1c-.57.442-1.12.924-1.676,1.384-.228.187-.453.376-.7.542a.29.29,0,0,1-.448-.141,1.814,1.814,0,0,1-.146-.452,15.823,15.823,0,0,1-.28-3.178,28.335,28.335,0,0,1,.492-4.586,2.341,2.341,0,0,1,.632-1.461c.022-.013.029-.037.041-.056a.589.589,0,0,0,.009-.643.573.573,0,0,0-.5-.255,1.985,1.985,0,0,1-.569.127.937.937,0,0,1-.09.028.388.388,0,0,1-.251-.026H78c-.272-.016-.618-.052-1.019-.087-.031,0-.052.022-.083.022-.252,0-.5.012-.747.021a12.841,12.841,0,0,0-3.77.82,42.68,42.68,0,0,0-5.129,2.33c-1.19.6-2.387,1.195-3.6,1.766a10.865,10.865,0,0,1-1.1.42c-.1.04-.2.08-.3.113-.02.009-.041.016-.06.025a3.5,3.5,0,0,1-.594.151h0a2.984,2.984,0,0,1-.962.04,5.56,5.56,0,0,1-.6-.12.813.813,0,0,1-.756-.141,1.93,1.93,0,0,1-.447-.516c-.035-.04-.077-.079-.107-.121s-.08-.074-.107-.127c-.106-.195-.217-.386-.367-.647-.276.388-.269.392-.315.692a19.485,19.485,0,0,0-.154,3.187,14.1,14.1,0,0,0,.371,3.1,16.511,16.511,0,0,0,5.076,8.734,17.7,17.7,0,0,0,2.669,1.985,1.814,1.814,0,0,1,.943,1.172,1.26,1.26,0,0,0,1.4.945,1.387,1.387,0,0,0,.758-.259,1.031,1.031,0,0,1,.844-.156c.378.077.753.161,1.127.254a20.028,20.028,0,0,0,8.294.318,21.908,21.908,0,0,0,11.089-5.258,1.659,1.659,0,0,1,.951-.485c.489-.053.566-.173.685-.687a1.136,1.136,0,0,1,.188-.5c.511-.515,1.043-1.009,1.576-1.5a.443.443,0,0,1,.618.005,3.543,3.543,0,0,1,.5.458c.606.68,1.194,1.366,1.79,2.049.384.447.773.889,1.151,1.338a1,1,0,0,0,.766.375c.474.016.947.081,1.42.12,2.057.158,4.111.31,6.166.476s4.106.349,6.164.52c.719.062,1.445.106,2.17.163.947.072,1.9.132,2.841.238a4.464,4.464,0,0,0,2.327-.326,7.816,7.816,0,0,0,1.138-.606,9.1,9.1,0,0,0,2.045-1.779c.492-.591.962-1.2,1.424-1.82a10.937,10.937,0,0,1,2.85-2.792,6.137,6.137,0,0,1,6.387-.418,7.927,7.927,0,0,1,2.1,1.489,11.969,11.969,0,0,1,3.2,5.823,1.258,1.258,0,0,1-.073.989.827.827,0,0,0-.1.323.6.6,0,0,0,.566.64.559.559,0,0,0,.6-.6,1.011,1.011,0,0,0-.136-.443m-50.74-2.482a22.046,22.046,0,0,1-9.547,4.22,18.343,18.343,0,0,1-5,.235,22.261,22.261,0,0,1-3.547-.6,7.718,7.718,0,0,1-.833-.289.675.675,0,0,1-.459-.545c-.008-.066-.019-.136-.032-.2a1.392,1.392,0,0,0-1.939-.926.458.458,0,0,0-.123.062,1.075,1.075,0,0,1-1.376,0,13.8,13.8,0,0,1-2.361-1.711,16.128,16.128,0,0,1-4.809-7.519,14.531,14.531,0,0,1-.661-4.485c.008-.543.008-1.087.022-1.63a.676.676,0,0,1,.161-.54,1.269,1.269,0,0,1,.273.15,12.861,12.861,0,0,0,1.6,1.018.527.527,0,0,0,.642-.04,3.944,3.944,0,0,1,1.31-.542,21.775,21.775,0,0,0,3.493-1.493c1.743-.869,3.456-1.809,5.245-2.58A18.046,18.046,0,0,1,75.049,99.9a7.665,7.665,0,0,1,2.5-.072c.089.015.183.022.269.043a.725.725,0,0,1,.634.89,8.4,8.4,0,0,1-.149.869,25.057,25.057,0,0,0-.489,4.723,16.3,16.3,0,0,0,.28,3.245,1.848,1.848,0,0,1,0,.872.875.875,0,0,0,.286.918,2.661,2.661,0,0,1,.46.661,12.058,12.058,0,0,0,5.086,5.228,7.393,7.393,0,0,0,4.249.952c.2-.013.4-.062.6-.086.175-.021.352-.035.529-.052.018.041.04.082.059.127-.146.131-.285.276-.442.393m5.394-5.135a.95.95,0,0,0-.53.5,2.7,2.7,0,0,1-.729.885c-.3.271-.59.559-.886.841a2.407,2.407,0,0,1-.827.585,1.067,1.067,0,0,0-.538.395,1.962,1.962,0,0,1-.985.694,6.218,6.218,0,0,1-4,.178,9.412,9.412,0,0,1-3.341-1.772,12.324,12.324,0,0,1-2.467-2.6,9.228,9.228,0,0,1-.707-1.237,1.4,1.4,0,0,1,.317-1.683,10.825,10.825,0,0,1,.954-.866,26.1,26.1,0,0,1,7.141-4.409,23.953,23.953,0,0,1,6.362-1.638c1.214-.131,2.428-.288,3.639-.455a12.267,12.267,0,0,1,2.578-.065,19.051,19.051,0,0,1,6.5,1.6,13.953,13.953,0,0,1,2.48,1.405c.12.089.221.2.344.305-.212.116-.35,0-.486-.06a7.143,7.143,0,0,0-3.531-.476,8.312,8.312,0,0,0-2.965.94,15.355,15.355,0,0,0-3.592,2.658c-1.29,1.237-2.6,2.462-3.9,3.688a2.765,2.765,0,0,1-.83.583m26.777,5.444a6.433,6.433,0,0,1-1.947,1.088,4.056,4.056,0,0,1-1.742.166c-2.077-.175-4.149-.357-6.225-.524-1.443-.121-2.888-.211-4.333-.327-1.419-.113-2.838-.249-4.26-.366-.833-.07-1.672-.118-2.506-.185-.474-.036-.941-.1-1.415-.13a.838.838,0,0,1-.589-.3c-.217-.259-.442-.514-.66-.772-.7-.8-1.406-1.6-2.091-2.411a1.322,1.322,0,0,1,.093-1.884q1.585-1.536,3.2-3.038c.729-.675,1.458-1.358,2.229-1.989a10.246,10.246,0,0,1,3.3-1.844,6.716,6.716,0,0,1,6.428,1.041,11.539,11.539,0,0,1,2.03,2,1.539,1.539,0,0,1,.434,1.239.559.559,0,0,0,.431.68,1.5,1.5,0,0,1,.885.781q1.429,2.231,2.864,4.459a7.63,7.63,0,0,0,.6.823,3.029,3.029,0,0,0,3.257,1.14,3.374,3.374,0,0,1,.36-.016,4.108,4.108,0,0,1-.347.377m2.242-2.463a5.936,5.936,0,0,1-1.623,1.329,3.94,3.94,0,0,1-.813.335,2.309,2.309,0,0,1-2.007-.329,3.709,3.709,0,0,1-.994-1.012q-.472-.7-.932-1.418-1.1-1.716-2.2-3.436a6.457,6.457,0,0,1-.36-.651.3.3,0,0,1,.178-.441,2.018,2.018,0,0,1,.393-.1c1.5-.238,2.994-.472,4.5-.705,2.037-.323,4.068-.645,6.106-.964.942-.143,1.878-.316,2.824-.407a11.87,11.87,0,0,1,3.584.127c.039.008.073.05.205.151-.316.077-.555.138-.8.187a6.362,6.362,0,0,0-3.821,2.281c-1.394,1.7-2.815,3.373-4.236,5.052m14.7.428a10.934,10.934,0,0,0-2.81-3.443,8.273,8.273,0,0,0-1.727-1.067,6.541,6.541,0,0,0-5.275-.156,2.681,2.681,0,0,1-.817.289c0-.077-.017-.127,0-.157a6.179,6.179,0,0,1,4.08-2.791,6.082,6.082,0,0,1,3.082.215,2.157,2.157,0,0,1,.758.435,7.122,7.122,0,0,1,1.406,1.64,11.005,11.005,0,0,1,1.232,2.859c.209.763.37,1.538.545,2.311a4.845,4.845,0,0,1,.031.6,2.2,2.2,0,0,1-.505-.735" transform="translate(-23.878 -41.009)" fill="#fff"/>
    </g>
  </g>
  <g id="Grupo_993" data-name="Grupo 993" transform="translate(5.044)">
    <g id="Grupo_992" data-name="Grupo 992" clip-path="url(#clip-path-2)">
      <path id="Trazado_1336" data-name="Trazado 1336" d="M122.535,96.41H20.509L71.616,5.286ZM22.373,95.32h98.3l-49.06-87.8Z" transform="translate(-13.518 -2.184)" fill="#fff"/>
    </g>
  </g>
</svg>
