<svg id="Grupo_1006" data-name="Grupo 1006" xmlns="http://www.w3.org/2000/svg" xmlns:xlink="http://www.w3.org/1999/xlink" width="178.929" height="134.5" viewBox="0 0 178.929 134.5">
  <defs>
    <clipPath id="clip-path">
      <rect id="Rectángulo_435" data-name="Rectángulo 435" width="178.929" height="134.5" fill="none"/>
    </clipPath>
  </defs>
  <path id="Trazado_1338" data-name="Trazado 1338" d="M1.158,1.778H15.679V8.671H8.093v3.641h7.24v6.5H8.093v4.768h7.759v6.935H1.158Z" transform="translate(-0.594 -0.912)" fill="#fff"/>
  <path id="Trazado_1339" data-name="Trazado 1339" d="M56.692,1.778h6.849v21.8h7.109v6.935H56.692Z" transform="translate(-29.082 -0.912)" fill="#fff"/>
  <g id="Grupo_996" data-name="Grupo 996">
    <g id="Grupo_995" data-name="Grupo 995" clip-path="url(#clip-path)">
      <path id="Trazado_1340" data-name="Trazado 1340" d="M197.936,1.778h6.589c6.979,0,10.62,2.211,10.62,10.534v7.672c0,8.322-3.641,10.533-10.62,10.533h-6.589Zm10.23,9.624c0-1.994-.737-2.644-2.341-2.644h-.953V23.538h.953c1.6,0,2.341-.694,2.341-2.644Z" transform="translate(-101.537 -0.912)" fill="#fff"/>
      <path id="Trazado_1341" data-name="Trazado 1341" d="M282.666,1.778h14.52V8.671H289.6v3.641h7.239v6.5H289.6v4.768h7.759v6.935H282.666Z" transform="translate(-145.002 -0.912)" fill="#fff"/>
      <path id="Trazado_1342" data-name="Trazado 1342" d="M337.074,17.121c-4.117-3.034-5.159-5.765-5.159-9.232,0-4.855,4.248-7.889,8.669-7.889,4.292,0,8.626,2.341,8.409,10.187h-6.155c.087-2.6-.52-4.032-2.123-4.032-1.431,0-1.994.781-1.994,1.864a3.6,3.6,0,0,0,1.733,2.86l3.815,2.861c4.074,3.078,4.854,5.635,4.854,8.409,0,5.158-3.987,8.322-8.712,8.322-4.594,0-8.842-2.427-8.626-10.143h6.154c-.086,2.731.651,3.858,2.211,3.858a1.669,1.669,0,0,0,1.864-1.863c0-.65-.086-1.648-1.734-2.861Z" transform="translate(-170.195 0.001)" fill="#fff"/>
      <path id="Trazado_1343" data-name="Trazado 1343" d="M72.357,137.319V108.58H79.51c6.762,0,9.492,3.511,9.492,9.536S85.882,128,79.856,128h-.563v9.32Zm6.936-15.691h.737c1.561,0,2.254-.911,2.254-3.252s-.737-3.251-2.254-3.251h-.737Z" transform="translate(-37.118 -55.699)" fill="#fff"/>
      <path id="Trazado_1344" data-name="Trazado 1344" d="M130.565,137.319V108.58h8.366c6.675,0,8.755,3.858,8.755,7.586a7.339,7.339,0,0,1-3.814,6.415v.173c1.994.564,4.118,2.342,4.118,6.459v8.106h-6.936v-7.934c0-1.907-.606-2.86-2.341-2.86H137.5v10.794Zm6.934-17.035h1c1.732,0,2.425-1.213,2.425-2.948s-.736-2.6-2.3-2.6H137.5Z" transform="translate(-66.977 -55.699)" fill="#fff"/>
      <path id="Trazado_1345" data-name="Trazado 1345" d="M333.4,108.58h14.521v6.892h-7.586v3.641h7.239v6.5h-7.239v4.767h7.759v6.936H333.4Z" transform="translate(-171.026 -55.699)" fill="#fff"/>
      <path id="Trazado_1346" data-name="Trazado 1346" d="M8.8,220.711c-1.345,0-1.907.91-1.907,2.556v11.228c0,1.777.694,2.557,1.907,2.557,1.387,0,2.037-.867,1.95-4.248h6.633c.216,9.319-4.638,11.269-8.54,11.269C5.461,244.073,0,242.73,0,234.624V223.093c0-8.018,5.418-9.492,8.842-9.492,3.815,0,8.712,1.907,8.54,10.837H10.75c.087-2.818-.563-3.728-1.95-3.728" transform="translate(0 -109.573)" fill="#fff"/>
      <path id="Trazado_1347" data-name="Trazado 1347" d="M238.524,199.628h6.934v5.852h-6.934Zm0,7.673h6.934V236.04h-6.934Z" transform="translate(-122.358 -102.405)" fill="#fff"/>
      <path id="Trazado_1348" data-name="Trazado 1348" d="M327.258,223.268c0-6.806,4.465-9.666,9.232-9.666s9.233,2.86,9.233,9.622v11.184c0,6.936-4.465,9.665-9.233,9.665s-9.232-2.6-9.232-9.622Zm11.53.174c0-1.951-1.041-2.73-2.3-2.73s-2.3.779-2.3,2.73v10.88c0,1.908,1.041,2.687,2.3,2.687s2.3-.779,2.3-2.687Z" transform="translate(-167.877 -109.573)" fill="#fff"/>
    </g>
  </g>
</svg>
