<svg xmlns="http://www.w3.org/2000/svg" xmlns:xlink="http://www.w3.org/1999/xlink" width="184.067" height="168.346" viewBox="0 0 184.067 168.346">
  <defs>
    <clipPath id="clip-path">
      <rect id="Rectángulo_438" data-name="Rectángulo 438" width="184.067" height="168.346" fill="#fff"/>
    </clipPath>
  </defs>
  <g id="Grupo_1003" data-name="Grupo 1003" transform="translate(0 0.001)">
    <g id="Grupo_1002" data-name="Grupo 1002" transform="translate(0 -0.001)" clip-path="url(#clip-path)">
      <path id="Trazado_1352" data-name="Trazado 1352" d="M1354.9,836.5l-24.359-25.38c-1.42-1.409-2.672-1.5-4.08-.085s-1.321,2.658.1,4.066l23.241,26.539a3.621,3.621,0,0,0,5.1-5.141" transform="translate(-1171.901 -716.18)" fill="#fff"/>
      <path id="Trazado_1353" data-name="Trazado 1353" d="M135.556,119.282l35.121-35.121a13.633,13.633,0,0,0-6.58-22.934A13.648,13.648,0,0,0,154.04,42.033a13.62,13.62,0,0,0-10.626-17.708A13.65,13.65,0,0,0,123.943,8.051l-.349-.375A24.16,24.16,0,0,0,105.964,0H77.535a3.621,3.621,0,0,0-3.62,3.62V8.367a16.449,16.449,0,0,0,.936,5.489A13.644,13.644,0,0,0,56.666,30.743a13.643,13.643,0,0,0-10.641,17.71A13.643,13.643,0,0,0,35.977,67.639,13.644,13.644,0,0,0,29.4,90.581L36.619,97.8,1.061,133.36a3.62,3.62,0,1,0,5.12,5.12l35.9-35.9A13.635,13.635,0,0,0,62.447,90.166c.184.008.367.013.551.013A13.631,13.631,0,0,0,76.641,76.543c0-.184-.006-.367-.013-.55.181.007.363.013.544.013A13.631,13.631,0,0,0,90.814,62.37c0-.184-.006-.367-.013-.551.181.007.363.013.544.013A13.636,13.636,0,0,0,101.9,39.548L125.93,15.515a6.4,6.4,0,1,1,9.054,9.054l-3.543,3.543L118.584,40.969a3.62,3.62,0,1,0,5.12,5.12L136.56,33.233a6.4,6.4,0,1,1,9.054,9.054L142.07,45.83l-9.313,9.313a3.62,3.62,0,1,0,5.12,5.12l9.313-9.313A6.4,6.4,0,1,1,156.243,60l-4.864,4.864-4.449,4.449a3.62,3.62,0,1,0,5.12,5.12l4.452-4.452a6.4,6.4,0,0,1,9.051,9.058l-35.121,35.121a49.046,49.046,0,0,1-33,14.377,3.62,3.62,0,0,0-2.434,1.063L62.55,162.169a3.62,3.62,0,1,0,5.129,5.111l23.864-23.952a33.652,33.652,0,0,0,20.439,5.258l18.677,18.677a3.62,3.62,0,0,0,5.12-5.12l-19.858-19.86a3.623,3.623,0,0,0-2.856-1.049l-1.148.094a26.428,26.428,0,0,1-15.108-3.289l2.327-2.335a56.254,56.254,0,0,0,36.42-16.423m-82.2-24.038a6.4,6.4,0,0,1-9.054,0l-9.783-9.782a6.4,6.4,0,1,1,9.054-9.054l9.783,9.782a6.41,6.41,0,0,1,0,9.054M67.526,81.07a6.41,6.41,0,0,1-9.054,0l-9.783-9.783-4.864-4.864a6.4,6.4,0,1,1,9.054-9.054L67.525,72.015h0a6.4,6.4,0,0,1,0,9.054M81.7,66.9a6.41,6.41,0,0,1-9.054,0l-18.19-18.19a6.4,6.4,0,0,1,9.051-9.057L71.8,47.94l9.9,9.9h0a6.4,6.4,0,0,1,0,9.054M95.873,52.722a6.409,6.409,0,0,1-9.054,0l-18.19-18.19-.006-.006-3.538-3.538a6.4,6.4,0,0,1,9.054-9.054L95.873,43.667a6.4,6.4,0,0,1,0,9.055m.952-18.342-9.944-9.944a16.565,16.565,0,0,0,3.467.368h.08l9.935-.047a3.62,3.62,0,0,0-.017-7.241h-.017l-9.935.047h-.045a9.2,9.2,0,0,1-9.2-9.2V7.24h24.809a16.9,16.9,0,0,1,12.33,5.368l.147.158Z" transform="translate(0 0.001)" fill="#fff"/>
    </g>
  </g>
</svg>
