<svg xmlns="http://www.w3.org/2000/svg" xmlns:xlink="http://www.w3.org/1999/xlink" width="178.374" height="156.219" viewBox="0 0 178.374 156.219">
  <defs>
    <clipPath id="clip-path">
      <rect id="Rectángulo_436" data-name="Rectángulo 436" width="178.374" height="156.219" transform="translate(0 0)" fill="none" stroke="#fff" stroke-width="1"/>
    </clipPath>
  </defs>
  <g id="Grupo_999" data-name="Grupo 999" transform="translate(0 0.003)">
    <g id="Grupo_998" data-name="Grupo 998" transform="translate(0 -0.003)" clip-path="url(#clip-path)">
      <path id="Trazado_1349" data-name="Trazado 1349" d="M174.616,30.755A49.176,49.176,0,0,0,163.51,14.872,52.861,52.861,0,0,0,146.873,4.034,53.43,53.43,0,0,0,126.433,0h-.166a55.193,55.193,0,0,0-16.039,2.411A52.291,52.291,0,0,0,90.682,13.366l-.817.728-.725.648L87.6,13.366A53.508,53.508,0,0,0,51.834,0,58.716,58.716,0,0,0,35.866,2.245,51.111,51.111,0,0,0,14.814,14.1,46.763,46.763,0,0,0,2.248,33.857a48.134,48.134,0,0,0-1.89,9.58,69.436,69.436,0,0,0,13.8,48.7l-2.352,2.3a13.111,13.111,0,0,0,.464,19.372,15.1,15.1,0,0,0,10.108,3.8,15.4,15.4,0,0,0,1.559-.081,12.918,12.918,0,0,0-.2,2.606,13.232,13.232,0,0,0,4.515,9.6,15.1,15.1,0,0,0,10.108,3.8,15.511,15.511,0,0,0,4.876-.793,13.274,13.274,0,0,0,4.506,9.544,15.1,15.1,0,0,0,10.108,3.8,15.45,15.45,0,0,0,7.472-1.931,13.34,13.34,0,0,0,4.408,8.269,15.343,15.343,0,0,0,20.314-.092l.1.088a15.336,15.336,0,0,0,20.683-.435,13.188,13.188,0,0,0,4.038-8.87,15.384,15.384,0,0,0,18.186-2.231,13.127,13.127,0,0,0,3.787-12.055c.382.031.766.045,1.153.045a15.193,15.193,0,0,0,10.576-4.234,13.154,13.154,0,0,0,4.051-9.776,13.3,13.3,0,0,0-.23-2.146c.352.027.7.038,1.06.038a15.2,15.2,0,0,0,10.574-4.233,13.058,13.058,0,0,0,1.417-17.326c-.149-.2-.306-.394-.467-.585.087-.123.178-.243.264-.366a71.7,71.7,0,0,0,6.438-11.092,69.661,69.661,0,0,0,6.2-22.417c.261-2.559.422-4.82.479-6.718a44.708,44.708,0,0,0-3.738-19.26M22.383,111.908a8.827,8.827,0,0,1-5.9-2.216,7.644,7.644,0,0,1-.272-11.306L33.176,81.768a8.951,8.951,0,0,1,12.071-.254,7.642,7.642,0,0,1,.271,11.3L28.555,109.438a8.8,8.8,0,0,1-6.172,2.47m22.152,13.448a8.95,8.95,0,0,1-12.07.254,7.643,7.643,0,0,1-.272-11.3L52.937,93.984a8.948,8.948,0,0,1,12.07-.254,7.644,7.644,0,0,1,.272,11.306Zm19.491,12.549a8.952,8.952,0,0,1-12.071.254,7.644,7.644,0,0,1-.272-11.306l20.744-20.321a8.951,8.951,0,0,1,12.07-.254,7.644,7.644,0,0,1,.272,11.306ZM86.014,148.04a8.952,8.952,0,0,1-12.071.254,7.644,7.644,0,0,1-.272-11.306l17.266-16.914a8.95,8.95,0,0,1,12.07-.254,7.643,7.643,0,0,1,.272,11.3Zm20.411,0a8.95,8.95,0,0,1-12.07.254l-.089-.08,9.95-9.747q1.121-.6,2.383-1.3a7.628,7.628,0,0,1-.174,10.873m53.2-43.462a8.5,8.5,0,0,1-2.872,1.85,9.08,9.08,0,0,1-5.564.333,8.687,8.687,0,0,1-2.96-1.384,8.157,8.157,0,0,1-.676-.545l-2.065-1.849-30.47-27.329L110,71.152a3.153,3.153,0,0,0-3.409-.486l-.083.038a2.717,2.717,0,0,0-.741,4.539c8.033,7.222,29.078,26.1,29.078,26.1l6.174,5.528,2.323,2.08q.392.351.805.67a7.635,7.635,0,0,1,.018,11.069,8.949,8.949,0,0,1-12.07.253L98.331,90.7a3.2,3.2,0,0,0-4.584.374l-.049.063a2.732,2.732,0,0,0,.351,3.771l34.329,30.725a7.645,7.645,0,0,1,.271,11.306,8.952,8.952,0,0,1-12.071.253l-3.908-3.5-2.388-2.139a13.1,13.1,0,0,0-3.066-15.854,15.1,15.1,0,0,0-10.108-3.8,15.269,15.269,0,0,0-1.967.128,15.8,15.8,0,0,0-1.921.373c.006-.216.007-.432,0-.65a13.23,13.23,0,0,0-4.515-9.6,15.1,15.1,0,0,0-10.108-3.8,15.341,15.341,0,0,0-2.478.2,15.675,15.675,0,0,0-2.392.588,13.229,13.229,0,0,0-4.512-9.542,15.1,15.1,0,0,0-10.108-3.8,15.528,15.528,0,0,0-5.158.887,13.28,13.28,0,0,0-4.495-9.305,15.1,15.1,0,0,0-10.107-3.8h0a15.193,15.193,0,0,0-10.574,4.234l-9.76,9.56A63.192,63.192,0,0,1,7.193,44.061,42.282,42.282,0,0,1,8.828,35.7C13.017,22.563,23.864,12.36,37.851,8.4A51.4,51.4,0,0,1,51.834,6.431,46.393,46.393,0,0,1,84.391,19.458c.2.195.394.391.587.588l-.37.363L60.1,44.415a14.4,14.4,0,0,0,.509,21.29,16.855,16.855,0,0,0,22.732-.479L88.681,60l4.211-4.125L103.989,45a1.058,1.058,0,0,1,1.426-.029l51.608,46.211,2.327,2.084a7.913,7.913,0,0,1,2.124,3.044,7.626,7.626,0,0,1-1.852,8.261m11.866-54.74c-.051,1.746-.2,3.861-.451,6.285a64.65,64.65,0,0,1-10.712,29.361c-.107.16-.218.318-.327.477l-51.1-45.76.007-.007-1.24-1.107a4.6,4.6,0,0,0-6.2.135l-1.18,1.157.008.006L88.492,51.936l-.615.6c-.028.028-.059.053-.087.082l-3.51,3.438-5.336,5.227a10.472,10.472,0,0,1-14.121.3v0a8.941,8.941,0,0,1-.317-13.224L88.531,24.821l.289-.282,3.236-3.17,3.817-3.742.014-.012a46.593,46.593,0,0,1,30.4-11.185h.144a46.746,46.746,0,0,1,32.15,12.925,40.975,40.975,0,0,1,12.9,30.481" transform="translate(0 0.003)" fill="#fff" stroke="#fff" stroke-width="1"/>
    </g>
  </g>
</svg>
