<svg xmlns="http://www.w3.org/2000/svg" xmlns:xlink="http://www.w3.org/1999/xlink" width="119.051" height="183.955" viewBox="0 0 119.051 183.955">
  <defs>
    <clipPath id="clip-path">
      <rect id="Rectángulo_437" data-name="Rectángulo 437" width="119.051" height="183.955" transform="translate(0 0)" fill="none"/>
    </clipPath>
  </defs>
  <g id="Grupo_1001" data-name="Grupo 1001" transform="translate(0 0.004)">
    <g id="Grupo_1000" data-name="Grupo 1000" transform="translate(0 -0.004)" clip-path="url(#clip-path)">
      <path id="Trazado_1350" data-name="Trazado 1350" d="M115.824,295.148a47.225,47.225,0,0,0-9.841-15.467c-.16-.175-.324-.345-.485-.509l-.351-.35-5.027-5.029L88.87,262.546,104.635,235.1A15.7,15.7,0,0,0,91.31,211.08a15.4,15.4,0,0,0-1.724.1,15.753,15.753,0,0,0-9.363,4.5h0a15.781,15.781,0,0,0-2.078,2.574l-.117.18-.109.187L65.885,239.562l-18.3-18.3a15.719,15.719,0,0,0-22.2,0c-.132.134-.265.269-.391.408a15.488,15.488,0,0,0-4.155,11.178,15.94,15.94,0,0,0,4.675,10.747L50.019,268.1a15.43,15.43,0,0,0-8.664,4.042c-.136.127-.274.259-.407.393a15.6,15.6,0,0,0-4.6,11.1,16.065,16.065,0,0,0,.123,1.986,16.284,16.284,0,0,0-2.252-.236c-.189-.007-.379-.01-.568-.01a15.459,15.459,0,0,0-10.61,4.163c-.138.127-.274.258-.407.39a15.6,15.6,0,0,0-4.6,11.1,16.026,16.026,0,0,0,.141,2.126,15.826,15.826,0,0,0-2.514-.2h-.019a15.607,15.607,0,0,0-11.091,4.6c-.056.056-.106.107-.156.158A15.489,15.489,0,0,0,0,318.957a15.888,15.888,0,0,0,4.671,10.925l19.678,19.677,5.03,5.03a47.313,47.313,0,0,0,39.65,13.5,46.664,46.664,0,0,0,27.006-13.308l9.3-9.3a46.719,46.719,0,0,0,13.707-32.812,47.132,47.132,0,0,0-3.225-17.52m-30.888-72.5a7.606,7.606,0,1,1,12.768,8.27l-14.764,25.7L71.814,245.49ZM99.62,339.757l-9.305,9.305A38.642,38.642,0,0,1,62.891,360.4,39.229,39.229,0,0,1,35.1,348.865L10.4,324.159a7.719,7.719,0,0,1-.2-10.8l.079-.078a7.606,7.606,0,0,1,10.758,0l14.878,14.878a5.017,5.017,0,1,0,7.1-7.095L28.359,306.413a7.606,7.606,0,0,1,0-10.758c.065-.066.132-.131.2-.194a7.453,7.453,0,0,1,5.11-1.991,7.9,7.9,0,0,1,5.577,2.314L53.767,310.3a5.017,5.017,0,0,0,7.095-7.1L46.67,289.016a7.607,7.607,0,0,1,0-10.758c.066-.065.132-.13.2-.193a7.459,7.459,0,0,1,5.112-1.991,7.892,7.892,0,0,1,5.577,2.312l14.063,14.062a5.017,5.017,0,1,0,7.095-7.095L31.235,237.872a7.725,7.725,0,0,1-.321-10.687c.062-.069.127-.135.191-.2a7.6,7.6,0,0,1,10.759,0l42.829,42.83L99.775,284.9c.1.1.19.2.283.3a39.031,39.031,0,0,1-.437,54.563" transform="translate(0 -184.539)" fill="#fff"/>
      <path id="Trazado_1351" data-name="Trazado 1351" d="M365.342,20.542a6.464,6.464,0,0,0,9.142,0l9.454-9.453a6.651,6.651,0,0,0,1.993-4.825,6.408,6.408,0,0,0-1.888-4.418c-.056-.055-.113-.11-.172-.165A6.369,6.369,0,0,0,379.514,0a6.654,6.654,0,0,0-4.708,1.939l-3.128,3.13a2.5,2.5,0,0,1-3.531,0l-3.128-3.13A6.655,6.655,0,0,0,360.311,0,6.383,6.383,0,0,0,353.9,6.163a6.656,6.656,0,0,0,2,4.932Z" transform="translate(-309.395 0.004)" fill="#fff"/>
    </g>
  </g>
</svg>
