<svg width="2991" height="700" xmlns="http://www.w3.org/2000/svg" version="1.1">
 <g>
  <title>Layer 1</title>
  <path fill="#000000" d="m2420.81,308.54a0.25,0.25 0 0 0 0.41,-0.01q7.39,-11.62 14.71,-22.79q0.75,-1.14 1.81,-1.88c20.4,-14.14 47.21,-16.55 71.49,-12.28q6.24,1.1 13.06,3.61c24.37,8.94 38.06,28.18 40.83,53.23q1.51,13.61 1.57,26.89q0.23,56.52 0.07,131.39q0,0.53 -0.54,0.53l-53.69,0.01a0.75,0.74 -90 0 1 -0.74,-0.75q0.11,-60.3 -0.05,-124.37q-0.02,-7.54 -0.61,-15.33c-1.24,-16.55 -7.93,-31.57 -24.86,-36.21q-10.07,-2.76 -20.39,-1.8c-19.67,1.82 -32.96,19.49 -38.14,37.62c-4.03,14.11 -5.26,29.12 -5.25,43.89q0.03,48.62 0,96.45a0.5,0.49 0 0 1 -0.5,0.49l-53.5,0.01q-0.99,0 -0.99,-1l0,-293.22q0,-0.72 0.73,-0.72l53.73,-0.01a0.54,0.54 0 0 1 0.54,0.54q0.01,59.03 -0.01,114.72q0,0.56 0.32,0.99z" id="svg_68"/>
  <path fill="#000000" d="m1905.05,418.85c0.81,-20.23 -10.9,-31.89 -28.48,-39.43q-11.17,-4.79 -23.12,-7.64c-24.4,-5.82 -49.75,-13.86 -69.74,-28.62c-20.68,-15.27 -27.32,-40.19 -24.69,-65.18q2.88,-27.45 23.6,-45.55q15.6,-13.63 35.89,-20.06c7.78,-2.47 16.54,-4.59 24.56,-5.22q29.38,-2.34 54.08,4.89c36.25,10.6 57.12,44.22 61.27,80.65a0.4,0.39 86.7 0 1 -0.39,0.44l-55.09,-0.03q-0.66,-0.01 -0.73,-0.66c-2.54,-23.17 -15.27,-41.92 -39.83,-44.38q-9.34,-0.94 -18.05,0.57c-9.36,1.62 -19.55,6.76 -24.17,15.23q-3.67,6.76 -3.85,15.19c-0.61,27.77 22.83,36.6 45.06,42.89q8.09,2.29 16.27,4.24c38.25,9.11 76.37,27.45 83.57,69.76c3.35,19.7 0.63,41.03 -10.86,57.35c-11.73,16.65 -31.03,28.48 -50.84,34.28q-15.3,4.48 -31.78,5.07c-36.08,1.3 -75.11,-5.73 -100.13,-34.15c-12.6,-14.32 -18.96,-33.14 -20.63,-52.16q-0.02,-0.33 0.31,-0.33l55.17,0.01q0.7,0 0.85,0.68q6.47,30.49 33.84,41.02c10.12,3.89 22.37,4.82 32.75,3.26c16.92,-2.55 34.39,-13.1 35.16,-32.12z" id="svg_69"/>
  <path fill="#000000" d="m1300.81,339.1q0.38,0.32 0.85,0.45c27.62,7.54 47.31,25.15 50.41,54.97c2.96,28.58 -4.75,54.29 -28.31,72.26q-23.81,18.16 -55.61,19.62q-15.76,0.73 -30.62,0.77q-52.06,0.15 -97.75,0.04q-0.74,0 -0.74,-0.74l0,-273.5q0,-0.63 0.63,-0.63q48.42,-0.07 96.86,0.02c14.71,0.02 29.39,0.2 43.62,2.63c22.37,3.81 42.8,14.63 54.07,34.54c7.32,12.94 9.28,28.3 7.28,43.04c-3.13,22.97 -18.82,38.61 -40.52,45.71a0.48,0.48 0 0 0 -0.17,0.82zm-15.98,-51.92c-0.77,-15.15 -9.08,-26.09 -24.37,-29.45q-8.97,-1.97 -16.94,-2.16q-24.9,-0.58 -49.13,-0.17a0.36,0.35 -0.8 0 0 -0.35,0.35l0.01,68.47q0,0.82 0.82,0.82q20.95,-0.05 41.12,-0.03c10.5,0.01 20.6,-0.45 29.94,-4.21c14.26,-5.75 19.64,-18.92 18.9,-33.62zm-11.2,83.47q-3.13,-1.24 -6,-1.88q-11.47,-2.56 -28.34,-2.56q-22.58,0.01 -44.95,0.01a0.3,0.3 0 0 0 -0.3,0.3l0.01,76.51q0,0.69 0.68,0.69q28.29,0.12 57.16,0c5.08,-0.03 10.61,-0.25 15.49,-1.46c16.65,-4.15 26.71,-17.51 27.41,-34.62c0.67,-16.43 -4.83,-30.51 -21.16,-36.99z" id="svg_70"/>
  <rect fill="#000000" x="1397.18377" y="213.60337" width="55" height="274.92" rx="0.46" id="svg_71"/>
  <path fill="#000000" d="m1490.98,254.82l0,-42.03a0.47,0.47 0 0 1 0.47,-0.47l240.6,0a0.47,0.47 0 0 1 0.47,0.47l-0.01,42.01a0.47,0.47 0 0 1 -0.47,0.47l-92.27,0.05a0.47,0.47 0 0 0 -0.47,0.47l0,230.97a0.47,0.47 0 0 1 -0.47,0.47l-54.06,0a0.47,0.47 0 0 1 -0.47,-0.47l0,-231.01a0.47,0.47 0 0 0 -0.47,-0.47l-92.38,0.01a0.47,0.47 0 0 1 -0.47,-0.47z" id="svg_72"/>
  <path fill="#ff1616" d="m247.29,297.77a0.57,0.57 0 0 0 -0.5,-0.83l-77.13,-0.02a0.51,0.51 0 0 1 -0.51,-0.51l0.02,-78.59a0.77,0.76 90 0 1 0.76,-0.77l246.41,0.01a0.54,0.54 0 0 1 0.54,0.54l-0.05,78.57a0.76,0.75 -90 0 1 -0.75,0.76l-76.33,0q-0.32,0 -0.32,0.32l0.01,203.95a0.64,0.64 0 0 1 -0.64,0.64l-91.07,-0.01q-0.57,0 -0.57,-0.57q0.1,-95.18 -0.05,-191.91c-0.01,-3.32 -0.43,-6.55 -0.24,-10.1q0.05,-0.8 0.42,-1.48z" id="svg_73"/>
  <path fill="#ff1616" d="m517.8,325.27l124.89,0a0.5,0.5 0 0 1 0.5,0.5l0.01,67.38a0.5,0.5 0 0 1 -0.5,0.5l-124.91,-0.01a0.5,0.5 0 0 0 -0.5,0.5l0.04,36.11a0.5,0.5 0 0 0 0.5,0.5l124.87,0a0.5,0.5 0 0 1 0.5,0.5l0,70.09a0.5,0.5 0 0 1 -0.5,0.5l-217.17,0.01a0.5,0.5 0 0 1 -0.5,-0.5l-0.02,-283.79a0.5,0.5 0 0 1 0.5,-0.5l217.19,-0.01a0.5,0.5 0 0 1 0.5,0.5l0,70.33a0.5,0.5 0 0 1 -0.5,0.5l-124.9,0.04a0.5,0.5 0 0 0 -0.5,0.5l0,35.85a0.5,0.5 0 0 0 0.5,0.5z" id="svg_74"/>
  <path fill="#ff1616" d="m866.45,464.64c-0.73,0.75 -1.27,1.65 -2.05,2.35q-1.94,1.73 -3.66,3.64q-1.61,1.77 -3.56,3.21q-12.3,9.01 -24.1,15.29q-3.01,1.59 -6.53,2.91c-1.33,0.49 -2.8,0.43 -4.04,0.96q-6.24,2.72 -12.01,3.87q-9.35,1.88 -17.52,3.23c-7.18,1.2 -16.11,1.79 -24.3,1.78q-58.47,-0.05 -114.76,-0.05a0.38,0.37 0 0 1 -0.38,-0.37l0,-284.18a0.22,0.21 0 0 1 0.22,-0.21q56.69,-0.04 111.49,0.01q13.37,0.02 26.7,1.55q20.36,2.35 38.71,10.5q33.32,14.78 51.34,46.38c10.72,18.8 16.2,40.34 18.26,62.2q2.16,22.97 0.07,44.37q-1.16,11.88 -3.06,19.68q-1.51,6.22 -3.02,12.47q-1.24,5.11 -2.85,9q-1.81,4.38 -3.66,8.86q-2.1,5.08 -4.61,9.51q-2.62,4.63 -5.65,9.05q-0.09,0.13 -0.07,0.3q0.02,0.27 -0.13,0.49q-4.83,7.04 -10.83,13.2zm-93.36,-42.51c40.81,-0.67 40.24,-65.3 34.07,-91.48c-2.79,-11.8 -8.89,-25.6 -20.57,-30.8q-6.1,-2.72 -11.97,-2.82q-13.92,-0.24 -28.32,-0.08a0.45,0.45 0 0 0 -0.44,0.45l0.01,124.39q0,0.4 0.39,0.4q13.91,0.16 26.83,-0.06z" id="svg_75"/>
  <path fill="#ff1616" d="m1013.29,246.12q1.49,-2.41 1.95,-2.93a29.29,29.22 81 0 0 3.3,-4.56c1.18,-2.03 3.21,-3.86 4.47,-5.6q5.13,-7.06 10.43,-13.85q0.31,-0.4 0.81,-0.4l64.29,0.04a0.31,0.3 17.6 0 1 0.25,0.48l-56.64,77.86a0.73,0.72 -45.5 0 0 0,0.85l56.49,76.02a0.44,0.44 0 0 1 -0.35,0.7l-66.34,-0.01a1.23,1.22 71.3 0 1 -0.98,-0.49l-22.42,-30.63a0.34,0.34 0 0 0 -0.55,0l-22.33,30.58a1.47,1.46 -71.8 0 1 -1.18,0.6l-65.74,-0.22q-0.84,0 -0.33,-0.67q10.03,-13.09 18.71,-25.4q0.99,-1.41 1.89,-2.49q3.49,-4.22 6.21,-8.27q2.03,-3.02 4.2,-5.67q2.28,-2.78 4.32,-5.64q5.2,-7.27 10.64,-14.15q0.15,-0.2 0.19,-0.45q0.02,-0.14 0.03,-0.28q0,-0.04 0.12,-0.2l10.13,-13.18q0.37,-0.48 0.01,-0.98l-56.51,-77.66a0.44,0.44 0 0 1 0.36,-0.7l63.33,-0.05a2.48,2.47 -18.1 0 1 1.99,1l23.96,32.67a0.47,0.46 40.4 0 0 0.79,-0.06q0.96,-1.93 2.36,-3.51q1.47,-1.66 2.14,-2.75z" id="svg_76"/>
  <path fill="#000000" d="m2287.43,313.52q-0.05,55.44 0.06,110.97c0.01,6.69 0.9,14.22 4.29,20.27c2.68,4.78 7.42,6.99 12.7,7.75q11.59,1.67 22.49,0.43a0.68,0.68 0 0 1 0.75,0.68l0.01,34.42q0,0.71 -0.7,0.81q-24.1,3.47 -43.72,2.61c-12.19,-0.53 -26.96,-2.81 -35.95,-10.59c-13.27,-11.51 -14.69,-29.92 -14.76,-46.62q-0.24,-58.11 -0.13,-120.69a0.46,0.46 0 0 0 -0.46,-0.46l-30.08,-0.01a0.67,0.66 0 0 1 -0.67,-0.66l0,-35.44q0,-0.34 0.35,-0.34l30.4,0.04a0.45,0.45 0 0 0 0.45,-0.45l-0.01,-51.22q0,-0.29 0.28,-0.29l54.1,0a0.6,0.6 0 0 1 0.6,0.6l-0.01,50.73a0.64,0.64 0 0 0 0.64,0.64l42.27,-0.04a0.92,0.92 0 0 1 0.92,0.92l-0.01,34.85q0,0.66 -0.67,0.66l-42.74,0.02a0.41,0.4 90 0 0 -0.4,0.41z" id="svg_77"/>
  <path fill="#000000" d="m2116.58,457.02a0.23,0.23 0 0 0 -0.18,0.14q-4.63,10.14 -9.19,19.99q-0.85,1.83 -2.7,2.97q-12.05,7.36 -26.71,10.38c-16.74,3.46 -35.11,3.33 -51.4,-2.15q-11.84,-3.99 -22.41,-13.01c-10.71,-9.13 -16.73,-22.7 -17.96,-36.78c-1.88,-21.51 4.4,-41.54 21.16,-55.29q16.65,-13.65 39.4,-19.14q22.58,-5.45 47.11,-5.88q11.18,-0.19 21.76,-0.19a0.66,0.65 -0.8 0 0 0.66,-0.67c-0.45,-19.16 2.11,-42.81 -22.27,-47.77c-11.71,-2.38 -25.13,-1.52 -34.71,6.05c-8.44,6.67 -11.17,17.71 -12.08,27.94q-0.05,0.56 -0.61,0.56l-52.41,0.43q-0.38,0 -0.37,-0.39c0.71,-22.36 9.64,-41.44 26.94,-54.77c18.35,-14.14 39.96,-19.58 63.21,-19.72q19.96,-0.11 36.38,4.06c28.64,7.28 46.03,27.18 48.92,56.58q1.48,15.09 1.51,34.53q0.05,34.26 0.07,70.51c0.01,16.98 1.6,34.06 3.87,50.93q0.12,0.9 -0.79,0.9l-52.55,0.01a0.42,0.42 0 0 1 -0.42,-0.36q-2.12,-15.43 -3.83,-29.75q-0.02,-0.16 -0.4,-0.11zm-71.48,-43.24q-4.05,10.09 -1.38,21.57c3.92,16.88 21.81,20.14 37.14,18.42c17.59,-1.97 30.72,-15.32 34.05,-32.53c1.78,-9.21 1.19,-19.55 1.08,-28.82a0.36,0.36 0 0 0 -0.34,-0.36c-15.77,-1.19 -30.65,-1.03 -45.4,2.66c-10.38,2.6 -21.07,8.94 -25.15,19.06z" id="svg_79"/>
  <path fill="#000000" d="m2701.53,444.24q0.36,1.18 0.72,0l51.48,-168.75a0.27,0.27 0 0 1 0.26,-0.19l59.23,-0.01a0.49,0.49 0 0 1 0.46,0.67q-42.48,109.48 -84.96,219.14q-6.16,15.88 -14.1,30.37c-8.86,16.18 -20.63,31 -37.36,38.38q-12.66,5.59 -26.91,6.66q-17.14,1.29 -34.13,-0.88a0.84,0.84 0 0 1 -0.74,-0.83l0.02,-36.83a0.3,0.3 0 0 1 0.33,-0.3q7.75,0.81 15.78,0.73c23.34,-0.21 35.25,-14.14 42.58,-34.64a1.76,1.75 -46.1 0 0 -0.02,-1.23l-86.03,-220.67a0.42,0.41 -10.6 0 1 0.39,-0.56l60.39,-0.01q0.4,0 0.52,0.39l52.09,168.56z" id="svg_80"/>
  <path fill="#000000" d="m900.74,633.58q-1.59,2.28 -3.16,4.46c-2.72,3.8 -9.69,4.85 -14.06,4.94c-20.93,0.41 -28.38,-17.45 -25.74,-35.64c2.5,-17.25 17.29,-26.5 34.03,-22.76q2.26,0.51 4.28,1.57c2.02,1.06 2.8,3.3 4.07,5.09q0.93,1.32 0.93,-0.29l0.06,-26.65q0.01,-0.54 0.55,-0.54l13.54,-0.01a0.49,0.49 0 0 1 0.49,0.49l0.01,76.77q0,0.5 -0.5,0.5l-13.6,-0.01a0.59,0.59 0 0 1 -0.59,-0.61l0.24,-7.12q0.04,-1.03 -0.55,-0.19zm-26.58,-30.5c-3.61,9.09 -2.53,29.09 11.76,29.66c7.75,0.3 13.35,-4.5 14.62,-12.22c0.9,-5.5 1.16,-13.1 -1.01,-18.32c-2.26,-5.44 -7.89,-8.68 -13.73,-8.07q-8.44,0.87 -11.64,8.95z" id="svg_84"/>
  <path fill="#000000" d="m1224.79,633.68c-1.85,2.68 -3.46,5.87 -6.6,7.16c-6.6,2.72 -15.55,3.02 -21.97,0.19c-13.82,-6.08 -16.79,-22.68 -13.73,-36.42c3.65,-16.41 19.47,-24.26 35.31,-19.51c4.18,1.25 4.56,3.54 6.92,6.61q0.66,0.86 0.66,-0.22l-0.1,-27.13q0,-0.61 0.61,-0.61l13.67,-0.01a0.33,0.32 0 0 1 0.33,0.32l0.01,76.87q0,0.57 -0.58,0.57l-13.58,0a0.51,0.5 0.6 0 1 -0.51,-0.51l0.15,-7.12q0.02,-1.09 -0.59,-0.19zm-14.55,-39.58c-13.02,0.79 -15.11,16.24 -13.07,25.91c1.26,5.98 5.1,11.71 11.46,12.59c7.54,1.03 13.95,-3.08 15.75,-10.66c1.36,-5.76 1.84,-15.62 -1.47,-21.3c-2.65,-4.54 -7.45,-6.86 -12.67,-6.54z" id="svg_85"/>
  <path fill="#000000" d="m1432.5,628.25c0,3.01 2.93,3.83 5.4,3.49q1.15,-0.16 1.16,1l0.03,8.03q0,1.01 -1,1.13q-7.09,0.84 -12.15,-0.11c-7.4,-1.38 -8.1,-7.3 -8.12,-13.7q-0.08,-32.74 0.03,-63.89a0.43,0.42 90 0 1 0.42,-0.43l13.72,-0.03a0.46,0.46 0 0 1 0.46,0.46q-0.01,33.62 0.05,64.05z" id="svg_86"/>
  <path fill="#000000" d="m2007.07,633.79c-1.87,2.66 -3.32,5.83 -6.56,7.09q-7.01,2.72 -14.29,1.99c-19.19,-1.94 -24.99,-20.91 -21.46,-37.66q2.93,-13.89 15.54,-19.42c6.09,-2.67 14.4,-2.62 20.72,-0.44c3.37,1.16 4,3.56 5.88,6.14q0.77,1.07 0.77,-0.25l0.03,-26.95q0,-0.51 0.51,-0.51l13.55,-0.03q0.51,0 0.51,0.51l0,76.73a0.51,0.51 0 0 1 -0.51,0.51l-13.42,0.01q-0.67,0 -0.67,-0.67l-0.01,-6.86q0,-1.02 -0.59,-0.19zm-5.07,-3.99c5.21,-4.25 5.79,-11.2 5.72,-17.89c-0.08,-8.43 -2.72,-15.93 -11.46,-17.58c-19.29,-3.66 -21.86,26.4 -11.18,35.58c4.54,3.9 12.18,3.75 16.92,-0.11z" id="svg_87"/>
  <ellipse fill="#000000" cx="774.31" cy="572.03998" rx="8.12" ry="7.8" transform="rotate(-1.2 774.31 572.04)" id="svg_88"/>
  <rect fill="#000000" x="1825.28994" y="564.42003" width="15.8" height="15.22" rx="6.92" transform="rotate(0.3 1833.19 572.03)" id="svg_89"/>
  <path fill="#000000" d="m2052.26,579.43l-0.05,-10.34a0.55,0.55 0 0 1 0.55,-0.55l62.99,0a0.55,0.55 0 0 1 0.55,0.55l0.01,10.33a0.55,0.55 0 0 1 -0.55,0.55l-23.67,0.01a0.55,0.55 0 0 0 -0.55,0.55l0,60.43a0.55,0.55 0 0 1 -0.55,0.55l-13.5,-0.01a0.55,0.55 0 0 1 -0.55,-0.55l0.04,-60.42a0.55,0.55 0 0 0 -0.55,-0.55l-23.62,0a0.55,0.55 0 0 1 -0.55,-0.55z" id="svg_90"/>
  <path fill="#000000" d="m2139.73,611.19l0.01,18.33a0.44,0.44 0 0 0 0.44,0.44l37.11,0.03a0.44,0.44 0 0 1 0.44,0.44l0.04,10.64a0.44,0.44 0 0 1 -0.44,0.44l-51.75,-0.01a0.44,0.44 0 0 1 -0.44,-0.44l-0.02,-72.08a0.44,0.44 0 0 1 0.44,-0.44l50.74,-0.03a0.44,0.44 0 0 1 0.44,0.44l-0.04,10.6a0.44,0.44 0 0 1 -0.44,0.44l-36.09,-0.03a0.44,0.44 0 0 0 -0.44,0.44l0.01,18.4a0.44,0.44 0 0 0 0.44,0.44l33.47,-0.01a0.44,0.44 0 0 1 0.44,0.44l0.02,10.64a0.44,0.44 0 0 1 -0.44,0.44l-33.5,0a0.44,0.44 0 0 0 -0.44,0.44z" id="svg_91"/>
  <path fill="#000000" d="m2190.26,568.77a0.38,0.38 0 0 1 0.38,-0.38l30.13,0.1a33.93,33.21 0.2 0 1 33.81,33.33l-0.02,6.5a33.93,33.21 0.2 0 1 -34.05,33.09l-30.13,-0.1a0.38,0.38 0 0 1 -0.38,-0.38l0.26,-72.16zm14.46,11.44l0,49.42a0.39,0.39 0 0 0 0.39,0.39l12.4,0a21.95,21.65 90 0 0 21.65,-21.95l0,-6.3a21.95,21.65 -90 0 0 -21.65,-21.95l-12.4,0a0.39,0.39 0 0 0 -0.39,0.39z" id="svg_92"/>
  <path fill="#000000" d="m1397.71,596q-0.13,17.14 0.06,30.58q0.06,3.61 3.04,5.22q2.23,1.22 7.29,0.58a0.2,0.2 0 0 1 0.23,0.2l-0.01,9.12q0,0.25 -0.25,0.29q-7.57,1.08 -13.92,0.4c-10.95,-1.17 -11.2,-9.75 -11.13,-18.42q0.12,-13.85 0.02,-28.07q0,-0.57 -0.57,-0.57l-6.99,0.05q-0.64,0 -0.65,-0.64l-0.02,-8.41q0,-0.61 0.61,-0.61l7.13,-0.01q0.51,0 0.51,-0.51l0.03,-12.37q0,-1.08 1.08,-1.08l12.92,0.02q0.59,0 0.59,0.59l-0.01,12.82q0,0.51 0.51,0.51l10.75,-0.02a0.35,0.35 0 0 1 0.35,0.35l0,8.98q0,0.28 -0.28,0.28l-10.56,-0.01q-0.73,0 -0.73,0.73z" id="svg_93"/>
  <path fill="#000000" d="m2551.03,595.28q-0.44,0 -0.44,0.44q-0.08,13.28 0,28.67c0.02,3.86 0.66,7.46 4.94,8.01q2.63,0.33 4.47,0.03q1.27,-0.21 1.26,1.07l-0.01,7.52q0,0.96 -0.95,1.08q-6.66,0.85 -13.03,0.35c-7.89,-0.63 -11.14,-5.79 -11.21,-13.23q-0.17,-16.73 -0.04,-33.18q0.01,-0.54 -0.52,-0.61q-3.67,-0.49 -6.09,-0.04q-1.66,0.31 -1.66,-1.37l-0.02,-7.27q0,-1.01 1.02,-1.02l6.43,-0.08q0.82,-0.01 0.82,-0.83l-0.01,-12.4q0,-0.59 0.59,-0.6l13.43,-0.08q0.52,0 0.53,0.52l0.03,12.76q0,0.69 0.7,0.69l10.69,-0.04a0.29,0.28 89 0 1 0.29,0.29l-0.03,9.06q-0.01,0.24 -0.24,0.24l-10.95,0.02z" id="svg_94"/>
  <path fill="#ff1616" d="m658.02,589.43a0.39,0.38 45.5 0 0 0.62,0.01l9.84,-13.21q0.39,-0.53 1.05,-0.53l25.72,0.02q0.88,0.01 0.36,0.72l-22.94,31.51a0.71,0.71 0 0 0 0,0.84q11.4,15.71 22.47,30.25q0.33,0.43 0.72,0.82a0.44,0.44 0 0 1 -0.31,0.75l-27.02,0.02q-0.52,0 -0.83,-0.41q-2,-2.67 -4.01,-5.41c-1.61,-2.19 -3.54,-3.9 -4.54,-6.51a0.75,0.75 0 0 0 -1.31,-0.17l-8.73,12.06a1.06,1.03 17.1 0 1 -0.86,0.44l-26.89,-0.01a0.37,0.37 0 0 1 -0.3,-0.59l23.13,-31.06a0.7,0.69 -43.8 0 0 0.02,-0.81q-4.91,-7.29 -10.82,-14.7q-0.25,-0.33 -0.24,-0.73q-6.3,-8.56 -12,-16.4a0.39,0.39 0 0 1 0.32,-0.62l25.99,0.01q0.52,0 0.83,0.42l9.73,13.29z" id="svg_95"/>
  <path fill="#000000" d="m809.96,592.98q0,1.44 0.78,0.24c1.61,-2.47 2.76,-5.31 5.54,-6.77c10.45,-5.47 28.25,-3.19 31.08,10.54q0.81,3.96 0.83,8.08q0.11,18.79 0.04,35.99a0.45,0.44 -89.3 0 1 -0.44,0.44l-13.59,0.01a0.57,0.57 0 0 1 -0.57,-0.57q0.06,-16.89 -0.06,-34.14c-0.06,-8.19 -3.23,-13.47 -12.09,-12.67c-8.78,0.79 -11.34,11.65 -11.44,18.63q-0.2,14.28 -0.07,28.45a0.29,0.28 -1 0 1 -0.29,0.29l-13.96,0.01a0.34,0.34 0 0 1 -0.34,-0.34l-0.03,-55.22a0.7,0.69 0 0 1 0.7,-0.69l13.18,0.01a0.72,0.71 0 0 1 0.72,0.71l0.01,7z" id="svg_97"/>
  <path fill="#000000" d="m940.22,618.02c0.67,9.14 5.44,16.13 15.44,14.48q7.12,-1.18 9.12,-8.7q0.14,-0.55 0.71,-0.55l13.31,0a0.45,0.44 6.2 0 1 0.44,0.54c-2.6,11.73 -12.04,18.28 -23.75,19.11c-20.65,1.46 -31.53,-13.14 -29.91,-32.64q1.23,-14.71 12.77,-22.28c6.48,-4.25 16.33,-5.27 23.7,-3.14c13.86,4.01 19.48,18.12 18.04,31.87q-0.05,0.5 -0.56,0.5l-38.57,0.02q-0.8,0 -0.74,0.79zm0.97,-10.23l23.54,-0.16a0.55,0.55 0 0 0 0.54,-0.56l0,-0.15a12.92,12.19 89.6 0 0 -12.28,-12.83l-0.26,0a12.92,12.19 89.6 0 0 -12.1,13.01l0,0.15a0.55,0.55 0 0 0 0.56,0.54z" id="svg_98"/>
  <path fill="#000000" d="m1004.99,635.01l0.01,26.74a0.5,0.5 0 0 1 -0.5,0.5l-13.46,0q-0.54,0 -0.54,-0.54c-0.25,-26.73 0.42,-50.54 -0.05,-75.81a0.57,0.57 0 0 1 0.57,-0.58l13.14,-0.01a0.85,0.84 0.3 0 1 0.85,0.85l-0.03,6.55q-0.01,1.03 0.6,0.2c1.53,-2.09 3.05,-5.22 5.4,-6.42q6.45,-3.31 15.47,-2.56c14.55,1.19 22.08,13.37 22.37,27.02q0.09,4.34 -0.5,8.49c-2.59,18.34 -19.39,27.56 -36.61,21.98c-3.49,-1.13 -4.36,-3.77 -6.17,-6.57q-0.55,-0.84 -0.55,0.16zm24.02,-6.56c6.9,-7.52 6.33,-24.58 -1.16,-31.4c-5.26,-4.79 -14.58,-3.62 -19.02,1.75c-4.61,5.56 -4.47,16.37 -3.18,22.88c2.19,11 15.89,14.93 23.36,6.77z" id="svg_99"/>
  <path fill="#000000" d="m1069.28,617.99c0.88,9.22 5.55,16.6 16.32,14.31q6.31,-1.33 8.16,-8.14q0.25,-0.91 1.19,-0.91l12.99,0q0.62,0 0.47,0.6c-3.17,13.08 -14.61,19.75 -27.39,19.11q-20.59,-1.03 -25.41,-19.76c-3.09,-12.01 -0.33,-25.88 9.96,-33.86c9.43,-7.32 26.02,-7.93 35.18,0.88c7.3,7.02 9.29,16.53 8.54,26.47q-0.04,0.52 -0.56,0.52l-38.76,0.02q-0.76,0 -0.69,0.76zm1,-10.17l23.68,-0.2a0.36,0.36 0 0 0 0.36,-0.37l-0.01,-0.16a13.16,12.01 89.5 0 0 -12.12,-13.05l-0.38,0a13.16,12.01 89.5 0 0 -11.89,13.27l0,0.16a0.36,0.36 0 0 0 0.36,0.35z" id="svg_100"/>
  <path fill="#000000" d="m1134,592.79q-0.05,1.71 0.89,0.27c2.54,-3.91 3.9,-6.6 9.01,-8.08c13.17,-3.83 27.73,0.81 28.26,16.72q0.46,13.81 0.22,39.16q0,0.64 -0.65,0.64l-13.46,0.01a0.51,0.51 0 0 1 -0.51,-0.51q0.08,-17.54 -0.05,-35.02c-0.04,-5.53 -1.75,-10.39 -7.77,-11.61c-10.59,-2.15 -15.26,7.46 -15.59,16.44q-0.49,12.9 -0.18,30.21a0.47,0.47 0 0 1 -0.47,0.48l-13.7,0q-0.5,0.01 -0.5,-0.5l0,-55.25a0.5,0.49 0 0 1 0.5,-0.49l13.5,0a0.72,0.72 0 0 1 0.72,0.74l-0.22,6.79z" id="svg_101"/>
  <path fill="#000000" d="m1264.3,617.96c0.74,8.22 4.54,15.46 14.13,14.71q8.41,-0.66 10.47,-8.91q0.13,-0.51 0.66,-0.51l13.46,0a0.42,0.41 6.5 0 1 0.41,0.51c-3.03,13.27 -14.26,19.48 -27.34,19.23c-11.53,-0.22 -21.82,-6.65 -24.91,-17.95c-5.27,-19.31 3.16,-40.55 25.76,-41.22c19.7,-0.59 28.93,14.95 27.33,32.9q-0.04,0.5 -0.54,0.5l-38.76,0.01q-0.73,0 -0.67,0.73zm1.01,-10.29l23.7,0.04a0.3,0.3 0 0 0 0.3,-0.3l0,-0.36a13,12.14 -89.9 0 0 -12.12,-13.02l-0.02,0a13,12.14 -89.9 0 0 -12.16,12.98l0,0.36a0.3,0.3 0 0 0 0.3,0.3z" id="svg_102"/>
  <path fill="#000000" d="m1329.83,593.4c1.89,-2.94 3.07,-5.9 6.54,-7.4c10.46,-4.52 27.75,-2.72 30.26,11.36q0.9,5.07 0.87,11.78q-0.08,15.4 -0.02,31.66q0,0.7 -0.7,0.7l-13.29,0q-0.67,0 -0.67,-0.67q0.05,-18.82 -0.08,-35.34c-0.04,-4.8 -1.75,-9.55 -6.82,-10.88c-12.71,-3.32 -16.62,9.11 -16.7,18.83q-0.12,13.41 -0.03,27.4q0,0.66 -0.66,0.66l-13.38,0.01a0.61,0.6 -90 0 1 -0.6,-0.61l0,-54.91q0,-0.71 0.71,-0.71l13.28,-0.02a0.63,0.63 0 0 1 0.63,0.62l0.04,7.34q0.01,1.14 0.62,0.18z" id="svg_103"/>
  <path fill="#000000" d="m1582.3655,616.2684a26.37,26.37 0 0 1 -26.2315,26.5077l-5.14,0.027a26.37,26.37 0 0 1 -26.5077,-26.2316l-0.0318,-6.0799a26.37,26.37 0 0 1 26.2315,-26.5077l5.14,-0.027a26.37,26.37 0 0 1 26.5077,26.2316l0.0318,6.0799zm-42.5655,-8.6984c-1.23,8.42 -0.33,19.98 8.08,24c5.2,2.48 12.12,1.14 15.66,-3.74c6.59,-9.1 5.99,-32.55 -8.84,-33.71c-8.67,-0.68 -13.75,5.59 -14.9,13.45z" id="svg_104"/>
  <path fill="#000000" d="m1671.82,632.63q-1.33,2.12 -2.59,3.92c-4.07,5.77 -16.07,6.08 -22.06,4.46c-17.31,-4.71 -21.39,-23.17 -16.93,-38.78c2.84,-9.95 11.27,-16.97 21.61,-18.2c5.08,-0.61 10.82,-0.21 15.5,2.01c2.1,1 2.98,3.42 4.25,5.25q0.97,1.41 0.94,-0.3l-0.07,-4.96q-0.01,-0.76 0.75,-0.76l13.27,0.01a0.62,0.62 0 0 1 0.62,0.62q0.01,25.62 -0.02,49.13c-0.01,5.01 -0.5,10.18 -2.5,14.76c-5.85,13.38 -21.82,15.98 -35.3,13.93c-10.66,-1.63 -18.25,-8.02 -19.11,-19.1q-0.05,-0.57 0.53,-0.57l13,-0.02a0.56,0.55 85 0 1 0.54,0.46q1.18,7.14 9.06,8.58c8.24,1.5 17.12,-1.17 18.72,-10.55q0.8,-4.66 0.35,-9.75q-0.07,-0.9 -0.56,-0.14zm-12.01,-38.46c-15.26,-1.44 -17.86,15.32 -15.17,26.1c1.47,5.88 5.58,10.71 11.84,11.25c13.17,1.14 16.41,-10.41 16.07,-20.98c-0.26,-8.38 -4.04,-15.55 -12.74,-16.37z" id="svg_105"/>
  <path fill="#000000" d="m1732.32,634.67q-0.27,-1.43 -0.79,-0.07c-0.76,1.98 -1.63,4.68 -3.61,5.65c-12.33,6.1 -31.7,2.48 -30.42,-15.14c1.18,-16.36 21.46,-18.22 33.86,-17.84q0.71,0.03 0.67,-0.69c-0.4,-6.78 0.1,-12.61 -8.96,-12.48q-8.37,0.11 -9.27,8.53a1.01,1.01 0 0 1 -0.99,0.91l-12.6,0.16a0.65,0.64 1.7 0 1 -0.65,-0.68c0.62,-11.18 9.17,-17.7 19.73,-18.95c9.7,-1.14 22.38,0.77 25.76,11.14q1.45,4.43 1.43,10.8c-0.03,11.59 -0.62,23.44 1.04,34.88q0.08,0.61 -0.54,0.61l-13.03,0.01q-0.81,0 -0.87,-0.81q-0.24,-3.31 -0.76,-6.03zm-1.93,-7.3q2.14,-3.63 1.51,-10.6q-0.04,-0.5 -0.54,-0.54c-6.47,-0.48 -18.98,-0.22 -18.85,9.13q0.09,5.99 5.57,7.05q8.36,1.63 12.31,-5.04z" id="svg_106"/>
  <path fill="#000000" d="m1775.36,593.26c2.48,-3.26 3.27,-6.16 7.68,-7.73c10.04,-3.58 25.83,-2.12 28.9,10.54q1.07,4.45 1.1,10.09q0.07,17.83 0.03,34.73q0,0.61 -0.61,0.61l-13.23,0.01q-0.76,0 -0.76,-0.76q0.05,-17.67 0,-32.41c-0.03,-7.89 -1.45,-14.08 -10.59,-14.25c-9.91,-0.17 -12.84,10.65 -13,18.41q-0.27,12.43 -0.1,28.45a0.54,0.54 0 0 1 -0.54,0.55l-13.51,0.01q-0.52,0 -0.52,-0.53l0,-55.19q0,-0.49 0.5,-0.49l13.31,-0.04a0.76,0.76 0 0 1 0.76,0.76l-0.05,7.02q0,1.05 0.63,0.22z" id="svg_107"/>
  <path fill="#000000" d="m1917.41,617.89c0.52,8.01 4.37,15.28 13.52,14.83q8.79,-0.44 11.06,-8.88q0.16,-0.59 0.77,-0.59l13.27,-0.01a0.44,0.44 0 0 1 0.43,0.54c-2.87,12.75 -13.63,19.17 -26.23,19.21c-19.45,0.07 -28.78,-14.17 -27.5,-32.35c1.26,-17.89 15.33,-28.86 32.92,-26.55c16.28,2.15 22.98,17.42 21.69,32.41a0.8,0.79 -87.2 0 1 -0.79,0.72l-38.52,0q-0.67,0 -0.62,0.67zm0.8,-10.13l24,-0.12a0.21,0.21 0 0 0 0.2,-0.21l0,-0.23a13.24,12.2 89.7 0 0 -12.27,-13.18l-0.02,0a13.24,12.2 89.7 0 0 -12.13,13.3l0,0.23a0.21,0.21 0 0 0 0.22,0.21z" id="svg_108"/>
  <path fill="#000000" d="m2296.24,618.01c0.31,5.5 2.57,11.88 8.15,13.91c7.07,2.58 14.66,-0.53 16.45,-8.33a0.44,0.44 0 0 1 0.43,-0.34l13.53,0a0.48,0.48 0 0 1 0.47,0.59q-1.9,8.29 -7.82,13.08c-13.27,10.75 -38.33,7.43 -44.03,-10.61c-7.23,-22.82 5.72,-46.11 32.03,-42.03c15.88,2.46 21.91,18.06 20.72,32.35q-0.05,0.58 -0.63,0.58l-38.56,0.02q-0.78,0 -0.74,0.78zm0.95,-10.3l23.5,0a0.55,0.55 0 0 0 0.55,-0.55l0,-0.16a12.93,12.24 -90 0 0 -12.24,-12.93l-0.12,0a12.93,12.24 90 0 0 -12.24,12.93l0,0.16a0.55,0.55 0 0 0 0.55,0.55z" id="svg_109"/>
  <path fill="#000000" d="m2417.23,617.99c0.76,8.15 4.39,15.18 13.62,14.72q8.71,-0.43 10.98,-8.93q0.14,-0.53 0.69,-0.53l13.01,0q1.04,0 0.76,1q-3.4,12.34 -14.59,16.61q-8.16,3.11 -16.53,1.79q-18.39,-2.91 -22.03,-21.23c-3.01,-15.18 3.21,-32.11 19.01,-36.4c21.92,-5.94 37.38,9.6 34.98,31.67q-0.06,0.52 -0.58,0.52l-38.62,0.02q-0.77,0 -0.7,0.76zm0.95,-10.22l23.8,-0.12a0.24,0.24 0 0 0 0.23,-0.24l0,-0.35a13.11,12.03 89.7 0 0 -12.1,-13.05l-0.22,0a13.11,12.03 89.7 0 0 -11.96,13.17l0,0.35a0.24,0.24 0 0 0 0.25,0.24z" id="svg_110"/>
  <path fill="#000000" d="m2481.93,593.12q-0.03,1.07 0.61,0.21c2.13,-2.92 3.57,-6.22 7.26,-7.61c13.9,-5.24 30.07,-0.58 30.36,16.8q0.27,15.91 0.12,38.43q0,0.55 -0.56,0.55l-13.67,0.01a0.31,0.31 0 0 1 -0.31,-0.31q-0.02,-13.82 0.02,-30.3q0.01,-3.91 -0.39,-7.83c-0.68,-6.82 -5.74,-9.57 -11.99,-8.92c-9.61,0.99 -11.31,13.61 -11.35,20.93q-0.06,12.8 0.03,25.89a0.53,0.53 0 0 1 -0.53,0.53l-13.55,0q-0.53,0 -0.53,-0.52l0.01,-55.21q0,-0.51 0.52,-0.51l13.58,0a0.55,0.55 0 0 1 0.55,0.56l-0.18,7.3z" id="svg_111"/>
  <path fill="#000000" d="m1607.23,594.58c1.73,-2.7 3.01,-6.41 5.62,-8.23q4.6,-3.2 11.21,-2.22q0.92,0.14 0.92,1.07l-0.04,10.2a0.68,0.68 0 0 1 -0.76,0.67q-2.9,-0.35 -6.28,0.4c-9.56,2.13 -11.14,10.93 -11.15,19.19q-0.03,11.66 0,25.29a0.55,0.55 0 0 1 -0.55,0.55l-13.67,0a0.35,0.35 0 0 1 -0.35,-0.35l0.04,-55.38a0.51,0.51 0 0 1 0.51,-0.51l13.29,0.03a0.74,0.73 0 0 1 0.74,0.73l-0.03,8.42q0,0.92 0.5,0.14z" id="svg_112"/>
  <rect fill="#000000" x="767.01" y="585.26" width="14.58" height="56.24" rx="0.5" id="svg_113"/>
  <path fill="#000000" d="m1471.17,629.25q0.36,1.18 0.72,0l13.19,-43.27a1.02,1.01 8.5 0 1 0.97,-0.71l14.46,0.01a0.49,0.49 0 0 1 0.46,0.67q-11.76,30.44 -23.06,59.44q-2.67,6.83 -6.82,11.78c-5.5,6.57 -13.71,7.1 -21.87,6.25a0.76,0.75 3.3 0 1 -0.68,-0.76l0.03,-8.88a0.57,0.57 0 0 1 0.66,-0.56q10.96,1.86 14.65,-8.1a2.7,2.69 -45.7 0 0 -0.02,-1.93l-22.39,-57.46a0.35,0.34 79.5 0 1 0.32,-0.47l14.99,-0.01a1.1,1.09 81.3 0 1 1.04,0.77l13.35,43.23z" id="svg_114"/>
  <rect fill="#000000" x="1825.86" y="585.26" width="14.62" height="56.24" rx="0.52" id="svg_115"/>
  <path fill="#000000" d="m2370.44,629.46l13.46,-43.94a0.36,0.36 0 0 1 0.35,-0.25l14.94,0a0.36,0.36 0 0 1 0.34,0.49l-21.49,55.51a0.36,0.36 0 0 1 -0.34,0.23l-15.81,0a0.36,0.36 0 0 1 -0.34,-0.23l-21.6,-55.53a0.36,0.36 0 0 1 0.34,-0.49l15.4,0.02a0.36,0.36 0 0 1 0.34,0.25l13.72,43.94a0.36,0.36 0 0 0 0.69,0z" id="svg_116"/>
  <path fill="#000000" d="m1879.78,595.42l-27.08,0.02q-0.49,0 -0.48,-0.49l0.01,-8.72q0,-0.54 0.54,-0.54l42.99,0.02q0.52,0 0.56,0.51q0.29,3.43 0.1,6.79q-0.16,2.78 -1.27,4.09q-14.37,17.04 -28.59,34.19a0.28,0.28 0 0 0 0.22,0.46l29.74,0a0.28,0.27 88.9 0 1 0.27,0.27l0.02,9.2a0.28,0.28 0 0 1 -0.28,0.28l-45.77,0.01q-0.49,0 -0.49,-0.5l0.01,-7.71a2.71,2.69 -25.3 0 1 0.62,-1.72l29.23,-35.4q0.63,-0.76 -0.35,-0.76z" id="svg_117"/>
  <rect fill="#000000" x="703.21" y="593.59" width="48.54" height="7.84" rx="0.49" id="svg_118"/>
  <rect fill="#000000" x="703.23" y="614.75" width="48.52" height="7.8" rx="0.5" id="svg_131"/>
 </g>

</svg>