<svg width="2991" height="700" xmlns="http://www.w3.org/2000/svg" version="1.1">
 <g>
  <title>Layer 1</title>
  <g stroke-width="2" fill="none" id="svg_1">
   <path stroke="#808080" vector-effect="non-scaling-stroke" d="m2420.81,308.54q-0.32,-0.43 -0.32,-0.99q0.02,-55.69 0.01,-114.72a0.54,0.54 0 0 0 -0.54,-0.54l-53.73,0.01q-0.73,0 -0.73,0.72l0,293.22q0,1 0.99,1l53.5,-0.01a0.5,0.49 0 0 0 0.5,-0.49q0.03,-47.83 0,-96.45c-0.01,-14.77 1.22,-29.78 5.25,-43.89c5.18,-18.13 18.47,-35.8 38.14,-37.62q10.32,-0.96 20.39,1.8c16.93,4.64 23.62,19.66 24.86,36.21q0.59,7.79 0.61,15.33q0.16,64.07 0.05,124.37a0.75,0.74 90 0 0 0.74,0.75l53.69,-0.01q0.54,0 0.54,-0.53q0.16,-74.87 -0.07,-131.39q-0.06,-13.28 -1.57,-26.89c-2.77,-25.05 -16.46,-44.29 -40.83,-53.23q-6.82,-2.51 -13.06,-3.61c-24.28,-4.27 -51.09,-1.86 -71.49,12.28q-1.06,0.74 -1.81,1.88q-7.32,11.17 -14.71,22.79a0.25,0.25 0 0 1 -0.41,0.01" id="svg_2"/>
   <path stroke="#808080" vector-effect="non-scaling-stroke" d="m1905.05,418.85c-0.77,19.02 -18.24,29.57 -35.16,32.12c-10.38,1.56 -22.63,0.63 -32.75,-3.26q-27.37,-10.53 -33.84,-41.02q-0.15,-0.68 -0.85,-0.68l-55.17,-0.01q-0.33,0 -0.31,0.33c1.67,19.02 8.03,37.84 20.63,52.16c25.02,28.42 64.05,35.45 100.13,34.15q16.48,-0.59 31.78,-5.07c19.81,-5.8 39.11,-17.63 50.84,-34.28c11.49,-16.32 14.21,-37.65 10.86,-57.35c-7.2,-42.31 -45.32,-60.65 -83.57,-69.76q-8.18,-1.95 -16.27,-4.24c-22.23,-6.29 -45.67,-15.12 -45.06,-42.89q0.18,-8.43 3.85,-15.19c4.62,-8.47 14.81,-13.61 24.17,-15.23q8.71,-1.51 18.05,-0.57c24.56,2.46 37.29,21.21 39.83,44.38q0.07,0.65 0.73,0.66l55.09,0.03a0.4,0.39 86.7 0 0 0.39,-0.44c-4.15,-36.43 -25.02,-70.05 -61.27,-80.65q-24.7,-7.23 -54.08,-4.89c-8.02,0.63 -16.78,2.75 -24.56,5.22q-20.29,6.43 -35.89,20.06q-20.72,18.1 -23.6,45.55c-2.63,24.99 4.01,49.91 24.69,65.18c19.99,14.76 45.34,22.8 69.74,28.62q11.95,2.85 23.12,7.64c17.58,7.54 29.29,19.2 28.48,39.43" id="svg_3"/>
   <path stroke="#808080" vector-effect="non-scaling-stroke" d="m1300.81,339.1a0.48,0.48 0 0 1 0.17,-0.82c21.7,-7.1 37.39,-22.74 40.52,-45.71c2,-14.74 0.04,-30.1 -7.28,-43.04c-11.27,-19.91 -31.7,-30.73 -54.07,-34.54c-14.23,-2.43 -28.91,-2.61 -43.62,-2.63q-48.44,-0.09 -96.86,-0.02q-0.63,0 -0.63,0.63l0,273.5q0,0.74 0.74,0.74q45.69,0.11 97.75,-0.04q14.86,-0.04 30.62,-0.77q31.8,-1.46 55.61,-19.62c23.56,-17.97 31.27,-43.68 28.31,-72.26c-3.1,-29.82 -22.79,-47.43 -50.41,-54.97q-0.47,-0.13 -0.85,-0.45" id="svg_4"/>
   <path stroke="#808080" vector-effect="non-scaling-stroke" d="m1455.96,212.78a0.46,0.46 0 0 0 -0.46,-0.46l-54.08,0a0.46,0.46 0 0 0 -0.46,0.46l0,274a0.46,0.46 0 0 0 0.46,0.46l54.08,0a0.46,0.46 0 0 0 0.46,-0.46l0,-274" id="svg_5"/>
   <path stroke="#808080" vector-effect="non-scaling-stroke" d="m1490.98,254.82a0.47,0.47 0 0 0 0.47,0.47l92.38,-0.01a0.47,0.47 0 0 1 0.47,0.47l0,231.01a0.47,0.47 0 0 0 0.47,0.47l54.06,0a0.47,0.47 0 0 0 0.47,-0.47l0,-230.97a0.47,0.47 0 0 1 0.47,-0.47l92.27,-0.05a0.47,0.47 0 0 0 0.47,-0.47l0.01,-42.01a0.47,0.47 0 0 0 -0.47,-0.47l-240.6,0a0.47,0.47 0 0 0 -0.47,0.47l0,42.03" id="svg_6"/>
   <path stroke="#ff8b8b" vector-effect="non-scaling-stroke" d="m247.29,297.77q-0.37,0.68 -0.42,1.48c-0.19,3.55 0.23,6.78 0.24,10.1q0.15,96.73 0.05,191.91q0,0.57 0.57,0.57l91.07,0.01a0.64,0.64 0 0 0 0.64,-0.64l-0.01,-203.95q0,-0.32 0.32,-0.32l76.33,0a0.76,0.75 90 0 0 0.75,-0.76l0.05,-78.57a0.54,0.54 0 0 0 -0.54,-0.54l-246.41,-0.01a0.77,0.76 90 0 0 -0.76,0.77l-0.02,78.59a0.51,0.51 0 0 0 0.51,0.51l77.13,0.02a0.57,0.57 0 0 1 0.5,0.83" id="svg_7"/>
   <path stroke="#ff8b8b" vector-effect="non-scaling-stroke" d="m517.8,325.27a0.5,0.5 0 0 1 -0.5,-0.5l0,-35.85a0.5,0.5 0 0 1 0.5,-0.5l124.9,-0.04a0.5,0.5 0 0 0 0.5,-0.5l0,-70.33a0.5,0.5 0 0 0 -0.5,-0.5l-217.19,0.01a0.5,0.5 0 0 0 -0.5,0.5l0.02,283.79a0.5,0.5 0 0 0 0.5,0.5l217.17,-0.01a0.5,0.5 0 0 0 0.5,-0.5l0,-70.09a0.5,0.5 0 0 0 -0.5,-0.5l-124.87,0a0.5,0.5 0 0 1 -0.5,-0.5l-0.04,-36.11a0.5,0.5 0 0 1 0.5,-0.5l124.91,0.01a0.5,0.5 0 0 0 0.5,-0.5l-0.01,-67.38a0.5,0.5 0 0 0 -0.5,-0.5l-124.89,0" id="svg_8"/>
   <path stroke="#ff8b8b" vector-effect="non-scaling-stroke" d="m866.45,464.64q6,-6.16 10.83,-13.2q0.15,-0.22 0.13,-0.49q-0.02,-0.17 0.07,-0.3q3.03,-4.42 5.65,-9.05q2.51,-4.43 4.61,-9.51q1.85,-4.48 3.66,-8.86q1.61,-3.89 2.85,-9q1.51,-6.25 3.02,-12.47q1.9,-7.8 3.06,-19.68q2.09,-21.4 -0.07,-44.37c-2.06,-21.86 -7.54,-43.4 -18.26,-62.2q-18.02,-31.6 -51.34,-46.38q-18.35,-8.15 -38.71,-10.5q-13.33,-1.53 -26.7,-1.55q-54.8,-0.05 -111.49,-0.01a0.22,0.21 0 0 0 -0.22,0.21l0,284.18a0.38,0.37 0 0 0 0.38,0.37q56.29,0 114.76,0.05c8.19,0.01 17.12,-0.58 24.3,-1.78q8.17,-1.35 17.52,-3.23q5.77,-1.15 12.01,-3.87c1.24,-0.53 2.71,-0.47 4.04,-0.96q3.52,-1.32 6.53,-2.91q11.8,-6.28 24.1,-15.29q1.95,-1.44 3.56,-3.21q1.72,-1.91 3.66,-3.64c0.78,-0.7 1.32,-1.6 2.05,-2.35" id="svg_9"/>
   <path stroke="#ff8b8b" vector-effect="non-scaling-stroke" d="m1011.15,248.87q-1.4,1.58 -2.36,3.51a0.47,0.46 40.4 0 1 -0.79,0.06l-23.96,-32.67a2.48,2.47 -18.1 0 0 -1.99,-1l-63.33,0.05a0.44,0.44 0 0 0 -0.36,0.7l56.51,77.66q0.36,0.5 -0.01,0.98l-10.13,13.18q-0.12,0.16 -0.12,0.2q-0.01,0.14 -0.03,0.28q-0.04,0.25 -0.19,0.45q-5.44,6.88 -10.64,14.15q-2.04,2.86 -4.32,5.64q-2.17,2.65 -4.2,5.67q-2.72,4.05 -6.21,8.27q-0.9,1.08 -1.89,2.49q-8.68,12.31 -18.71,25.4q-0.51,0.67 0.33,0.67l65.74,0.22a1.47,1.46 -71.8 0 0 1.18,-0.6l22.33,-30.58a0.34,0.34 0 0 1 0.55,0l22.42,30.63a1.23,1.22 71.3 0 0 0.98,0.49l66.34,0.01a0.44,0.44 0 0 0 0.35,-0.7l-56.49,-76.02a0.73,0.72 -45.5 0 1 0,-0.85l56.64,-77.86a0.31,0.3 17.6 0 0 -0.25,-0.48l-64.29,-0.04q-0.5,0 -0.81,0.4q-5.3,6.79 -10.43,13.85c-1.26,1.74 -3.29,3.57 -4.47,5.6a29.29,29.22 81 0 1 -3.3,4.56q-0.46,0.52 -1.95,2.93q-0.67,1.09 -2.14,2.75" id="svg_10"/>
   <path stroke="#808080" vector-effect="non-scaling-stroke" d="m2287.43,313.52a0.41,0.4 90 0 1 0.4,-0.41l42.74,-0.02q0.67,0 0.67,-0.66l0.01,-34.85a0.92,0.92 0 0 0 -0.92,-0.92l-42.27,0.04a0.64,0.64 0 0 1 -0.64,-0.64l0.01,-50.73a0.6,0.6 0 0 0 -0.6,-0.6l-54.1,0q-0.28,0 -0.28,0.29l0.01,51.22a0.45,0.45 0 0 1 -0.45,0.45l-30.4,-0.04q-0.35,0 -0.35,0.34l0,35.44a0.67,0.66 0 0 0 0.67,0.66l30.08,0.01a0.46,0.46 0 0 1 0.46,0.46q-0.11,62.58 0.13,120.69c0.07,16.7 1.49,35.11 14.76,46.62c8.99,7.78 23.76,10.06 35.95,10.59q19.62,0.86 43.72,-2.61q0.7,-0.1 0.7,-0.81l-0.01,-34.42a0.68,0.68 0 0 0 -0.75,-0.68q-10.9,1.24 -22.49,-0.43c-5.28,-0.76 -10.02,-2.97 -12.7,-7.75c-3.39,-6.05 -4.28,-13.58 -4.29,-20.27q-0.11,-55.53 -0.06,-110.97" id="svg_11"/>
   <path stroke="#808080" vector-effect="non-scaling-stroke" d="m2116.58,457.02q0.38,-0.05 0.4,0.11q1.71,14.32 3.83,29.75a0.42,0.42 0 0 0 0.42,0.36l52.55,-0.01q0.91,0 0.79,-0.9c-2.27,-16.87 -3.86,-33.95 -3.87,-50.93q-0.02,-36.25 -0.07,-70.51q-0.03,-19.44 -1.51,-34.53c-2.89,-29.4 -20.28,-49.3 -48.92,-56.58q-16.42,-4.17 -36.38,-4.06c-23.25,0.14 -44.86,5.58 -63.21,19.72c-17.3,13.33 -26.23,32.41 -26.94,54.77q-0.01,0.39 0.37,0.39l52.41,-0.43q0.56,0 0.61,-0.56c0.91,-10.23 3.64,-21.27 12.08,-27.94c9.58,-7.57 23,-8.43 34.71,-6.05c24.38,4.96 21.82,28.61 22.27,47.77a0.66,0.65 -0.8 0 1 -0.66,0.67q-10.58,0 -21.76,0.19q-24.53,0.43 -47.11,5.88q-22.75,5.49 -39.4,19.14c-16.76,13.75 -23.04,33.78 -21.16,55.29c1.23,14.08 7.25,27.65 17.96,36.78q10.57,9.02 22.41,13.01c16.29,5.48 34.66,5.61 51.4,2.15q14.66,-3.02 26.71,-10.38q1.85,-1.14 2.7,-2.97q4.56,-9.85 9.19,-19.99a0.23,0.23 0 0 1 0.18,-0.14" id="svg_12"/>
   <path stroke="#808080" vector-effect="non-scaling-stroke" d="m2701.53,444.24l-52.09,-168.56q-0.12,-0.39 -0.52,-0.39l-60.39,0.01a0.42,0.41 -10.6 0 0 -0.39,0.56l86.03,220.67a1.76,1.75 -46.1 0 1 0.02,1.23c-7.33,20.5 -19.24,34.43 -42.58,34.64q-8.03,0.08 -15.78,-0.73a0.3,0.3 0 0 0 -0.33,0.3l-0.02,36.83a0.84,0.84 0 0 0 0.74,0.83q16.99,2.17 34.13,0.88q14.25,-1.07 26.91,-6.66c16.73,-7.38 28.5,-22.2 37.36,-38.38q7.94,-14.49 14.1,-30.37q42.48,-109.66 84.96,-219.14a0.49,0.49 0 0 0 -0.46,-0.67l-59.23,0.01a0.27,0.27 0 0 0 -0.26,0.19l-51.48,168.75q-0.36,1.18 -0.72,0" id="svg_13"/>
   <path stroke="#808080" vector-effect="non-scaling-stroke" d="m901.29,633.77l-0.24,7.12a0.59,0.59 0 0 0 0.59,0.61l13.6,0.01q0.5,0 0.5,-0.5l-0.01,-76.77a0.49,0.49 0 0 0 -0.49,-0.49l-13.54,0.01q-0.54,0 -0.55,0.54l-0.06,26.65q0,1.61 -0.93,0.29c-1.27,-1.79 -2.05,-4.03 -4.07,-5.09q-2.02,-1.06 -4.28,-1.57c-16.74,-3.74 -31.53,5.51 -34.03,22.76c-2.64,18.19 4.81,36.05 25.74,35.64c4.37,-0.09 11.34,-1.14 14.06,-4.94q1.57,-2.18 3.16,-4.46q0.59,-0.84 0.55,0.19" id="svg_14"/>
   <path stroke="#808080" vector-effect="non-scaling-stroke" d="m1225.38,633.87l-0.15,7.12a0.51,0.5 0.6 0 0 0.51,0.51l13.58,0q0.58,0 0.58,-0.57l-0.01,-76.87a0.33,0.32 0 0 0 -0.33,-0.32l-13.67,0.01q-0.61,0 -0.61,0.61l0.1,27.13q0,1.08 -0.66,0.22c-2.36,-3.07 -2.74,-5.36 -6.92,-6.61c-15.84,-4.75 -31.66,3.1 -35.31,19.51c-3.06,13.74 -0.09,30.34 13.73,36.42c6.42,2.83 15.37,2.53 21.97,-0.19c3.14,-1.29 4.75,-4.48 6.6,-7.16q0.61,-0.9 0.59,0.19" id="svg_15"/>
   <path stroke="#808080" vector-effect="non-scaling-stroke" d="m1437.9,631.74c-2.47,0.34 -5.4,-0.48 -5.4,-3.49q-0.06,-30.43 -0.05,-64.05a0.46,0.46 0 0 0 -0.46,-0.46l-13.72,0.03a0.43,0.42 90 0 0 -0.42,0.43q-0.11,31.15 -0.03,63.89c0.02,6.4 0.72,12.32 8.12,13.7q5.06,0.95 12.15,0.11q1,-0.12 1,-1.13l-0.03,-8.03q-0.01,-1.16 -1.16,-1" id="svg_16"/>
   <path stroke="#808080" vector-effect="non-scaling-stroke" d="m2007.07,633.79q0.59,-0.83 0.59,0.19l0.01,6.86q0,0.67 0.67,0.67l13.42,-0.01a0.51,0.51 0 0 0 0.51,-0.51l0,-76.73q0,-0.51 -0.51,-0.51l-13.55,0.03q-0.51,0 -0.51,0.51l-0.03,26.95q0,1.32 -0.77,0.25c-1.88,-2.58 -2.51,-4.98 -5.88,-6.14c-6.32,-2.18 -14.63,-2.23 -20.72,0.44q-12.61,5.53 -15.54,19.42c-3.53,16.75 2.27,35.72 21.46,37.66q7.28,0.73 14.29,-1.99c3.24,-1.26 4.69,-4.43 6.56,-7.09" id="svg_17"/>
   <path stroke="#808080" vector-effect="non-scaling-stroke" d="m782.4282,571.8699a8.12,7.8 -1.2 0 0 -8.2816,-7.6282a8.12,7.8 -1.2 0 0 -7.9548,7.9684a8.12,7.8 -1.2 0 0 8.2816,7.6282a8.12,7.8 -1.2 0 0 7.9548,-7.9684" id="svg_18"/>
   <path stroke="#808080" vector-effect="non-scaling-stroke" d="m1841.0935,571.3814a6.92,6.92 0 0 0 -6.8837,-6.9562l-1.9599,-0.0102a6.92,6.92 0 0 0 -6.9562,6.8836l-0.0072,1.38a6.92,6.92 0 0 0 6.8837,6.9562l1.9599,0.0102a6.92,6.92 0 0 0 6.9562,-6.8836l0.0072,-1.38" id="svg_19"/>
   <path stroke="#808080" vector-effect="non-scaling-stroke" d="m2052.26,579.43a0.55,0.55 0 0 0 0.55,0.55l23.62,0a0.55,0.55 0 0 1 0.55,0.55l-0.04,60.42a0.55,0.55 0 0 0 0.55,0.55l13.5,0.01a0.55,0.55 0 0 0 0.55,-0.55l0,-60.43a0.55,0.55 0 0 1 0.55,-0.55l23.67,-0.01a0.55,0.55 0 0 0 0.55,-0.55l-0.01,-10.33a0.55,0.55 0 0 0 -0.55,-0.55l-62.99,0a0.55,0.55 0 0 0 -0.55,0.55l0.05,10.34" id="svg_20"/>
   <path stroke="#808080" vector-effect="non-scaling-stroke" d="m2139.73,611.19a0.44,0.44 0 0 1 0.44,-0.44l33.5,0a0.44,0.44 0 0 0 0.44,-0.44l-0.02,-10.64a0.44,0.44 0 0 0 -0.44,-0.44l-33.47,0.01a0.44,0.44 0 0 1 -0.44,-0.44l-0.01,-18.4a0.44,0.44 0 0 1 0.44,-0.44l36.09,0.03a0.44,0.44 0 0 0 0.44,-0.44l0.04,-10.6a0.44,0.44 0 0 0 -0.44,-0.44l-50.74,0.03a0.44,0.44 0 0 0 -0.44,0.44l0.02,72.08a0.44,0.44 0 0 0 0.44,0.44l51.75,0.01a0.44,0.44 0 0 0 0.44,-0.44l-0.04,-10.64a0.44,0.44 0 0 0 -0.44,-0.44l-37.11,-0.03a0.44,0.44 0 0 1 -0.44,-0.44l-0.01,-18.33" id="svg_21"/>
   <path stroke="#808080" vector-effect="non-scaling-stroke" d="m2190.26,568.77l-0.26,72.16a0.38,0.38 0 0 0 0.38,0.38l30.13,0.1a33.93,33.21 0.2 0 0 34.05,-33.09l0.02,-6.5a33.93,33.21 0.2 0 0 -33.81,-33.33l-30.13,-0.1a0.38,0.38 0 0 0 -0.38,0.38" id="svg_22"/>
   <path stroke="#808080" vector-effect="non-scaling-stroke" d="m1398.44,595.27l10.56,0.01q0.28,0 0.28,-0.28l0,-8.98a0.35,0.35 0 0 0 -0.35,-0.35l-10.75,0.02q-0.51,0 -0.51,-0.51l0.01,-12.82q0,-0.59 -0.59,-0.59l-12.92,-0.02q-1.08,0 -1.08,1.08l-0.03,12.37q0,0.51 -0.51,0.51l-7.13,0.01q-0.61,0 -0.61,0.61l0.02,8.41q0.01,0.64 0.65,0.64l6.99,-0.05q0.57,0 0.57,0.57q0.1,14.22 -0.02,28.07c-0.07,8.67 0.18,17.25 11.13,18.42q6.35,0.68 13.92,-0.4q0.25,-0.04 0.25,-0.29l0.01,-9.12a0.2,0.2 0 0 0 -0.23,-0.2q-5.06,0.64 -7.29,-0.58q-2.98,-1.61 -3.04,-5.22q-0.19,-13.44 -0.06,-30.58q0,-0.73 0.73,-0.73" id="svg_23"/>
   <path stroke="#808080" vector-effect="non-scaling-stroke" d="m2551.03,595.28l10.95,-0.02q0.23,0 0.24,-0.24l0.03,-9.06a0.29,0.28 89 0 0 -0.29,-0.29l-10.69,0.04q-0.7,0 -0.7,-0.69l-0.03,-12.76q-0.01,-0.52 -0.53,-0.52l-13.43,0.08q-0.59,0.01 -0.59,0.6l0.01,12.4q0,0.82 -0.82,0.83l-6.43,0.08q-1.02,0.01 -1.02,1.02l0.02,7.27q0,1.68 1.66,1.37q2.42,-0.45 6.09,0.04q0.53,0.07 0.52,0.61q-0.13,16.45 0.04,33.18c0.07,7.44 3.32,12.6 11.21,13.23q6.37,0.5 13.03,-0.35q0.95,-0.12 0.95,-1.08l0.01,-7.52q0.01,-1.28 -1.26,-1.07q-1.84,0.3 -4.47,-0.03c-4.28,-0.55 -4.92,-4.15 -4.94,-8.01q-0.08,-15.39 0,-28.67q0,-0.44 0.44,-0.44" id="svg_24"/>
   <path stroke="#ff8b8b" vector-effect="non-scaling-stroke" d="m658.02,589.43l-9.73,-13.29q-0.31,-0.42 -0.83,-0.42l-25.99,-0.01a0.39,0.39 0 0 0 -0.32,0.62q5.7,7.84 12,16.4q-0.01,0.4 0.24,0.73q5.91,7.41 10.82,14.7a0.7,0.69 -43.8 0 1 -0.02,0.81l-23.13,31.06a0.37,0.37 0 0 0 0.3,0.59l26.89,0.01a1.06,1.03 17.1 0 0 0.86,-0.44l8.73,-12.06a0.75,0.75 0 0 1 1.31,0.17c1,2.61 2.93,4.32 4.54,6.51q2.01,2.74 4.01,5.41q0.31,0.41 0.83,0.41l27.02,-0.02a0.44,0.44 0 0 0 0.31,-0.75q-0.39,-0.39 -0.72,-0.82q-11.07,-14.54 -22.47,-30.25a0.71,0.71 0 0 1 0,-0.84l22.94,-31.51q0.52,-0.71 -0.36,-0.72l-25.72,-0.02q-0.66,0 -1.05,0.53l-9.84,13.21a0.39,0.38 45.5 0 1 -0.62,-0.01" id="svg_25"/>
   <path stroke="#808080" vector-effect="non-scaling-stroke" d="m809.96,592.98l-0.01,-7a0.72,0.71 0 0 0 -0.72,-0.71l-13.18,-0.01a0.7,0.69 0 0 0 -0.7,0.69l0.03,55.22a0.34,0.34 0 0 0 0.34,0.34l13.96,-0.01a0.29,0.28 -1 0 0 0.29,-0.29q-0.13,-14.17 0.07,-28.45c0.1,-6.98 2.66,-17.84 11.44,-18.63c8.86,-0.8 12.03,4.48 12.09,12.67q0.12,17.25 0.06,34.14a0.57,0.57 0 0 0 0.57,0.57l13.59,-0.01a0.45,0.44 -89.3 0 0 0.44,-0.44q0.07,-17.2 -0.04,-35.99q-0.02,-4.12 -0.83,-8.08c-2.83,-13.73 -20.63,-16.01 -31.08,-10.54c-2.78,1.46 -3.93,4.3 -5.54,6.77q-0.78,1.2 -0.78,-0.24" id="svg_26"/>
   <path stroke="#808080" vector-effect="non-scaling-stroke" d="m940.96,617.23l38.57,-0.02q0.51,0 0.56,-0.5c1.44,-13.75 -4.18,-27.86 -18.04,-31.87c-7.37,-2.13 -17.22,-1.11 -23.7,3.14q-11.54,7.57 -12.77,22.28c-1.62,19.5 9.26,34.1 29.91,32.64c11.71,-0.83 21.15,-7.38 23.75,-19.11a0.45,0.44 6.2 0 0 -0.44,-0.54l-13.31,0q-0.57,0 -0.71,0.55q-2,7.52 -9.12,8.7c-10,1.65 -14.77,-5.34 -15.44,-14.48q-0.06,-0.79 0.74,-0.79" id="svg_27"/>
   <path stroke="#808080" vector-effect="non-scaling-stroke" d="m1005.54,634.85c1.81,2.8 2.68,5.44 6.17,6.57c17.22,5.58 34.02,-3.64 36.61,-21.98q0.59,-4.15 0.5,-8.49c-0.29,-13.65 -7.82,-25.83 -22.37,-27.02q-9.02,-0.75 -15.47,2.56c-2.35,1.2 -3.87,4.33 -5.4,6.42q-0.61,0.83 -0.6,-0.2l0.03,-6.55a0.85,0.84 0.3 0 0 -0.85,-0.85l-13.14,0.01a0.57,0.57 0 0 0 -0.57,0.58c0.47,25.27 -0.2,49.08 0.05,75.81q0,0.54 0.54,0.54l13.46,0a0.5,0.5 0 0 0 0.5,-0.5l-0.01,-26.74q0,-1 0.55,-0.16" id="svg_28"/>
   <path stroke="#808080" vector-effect="non-scaling-stroke" d="m1069.97,617.23l38.76,-0.02q0.52,0 0.56,-0.52c0.75,-9.94 -1.24,-19.45 -8.54,-26.47c-9.16,-8.81 -25.75,-8.2 -35.18,-0.88c-10.29,7.98 -13.05,21.85 -9.96,33.86q4.82,18.73 25.41,19.76c12.78,0.64 24.22,-6.03 27.39,-19.11q0.15,-0.6 -0.47,-0.6l-12.99,0q-0.94,0 -1.19,0.91q-1.85,6.81 -8.16,8.14c-10.77,2.29 -15.44,-5.09 -16.32,-14.31q-0.07,-0.76 0.69,-0.76" id="svg_29"/>
   <path stroke="#808080" vector-effect="non-scaling-stroke" d="m1134,592.79l0.22,-6.79a0.72,0.72 0 0 0 -0.72,-0.74l-13.5,0a0.5,0.49 0 0 0 -0.5,0.49l0,55.25q0,0.51 0.5,0.5l13.7,0a0.47,0.47 0 0 0 0.47,-0.48q-0.31,-17.31 0.18,-30.21c0.33,-8.98 5,-18.59 15.59,-16.44c6.02,1.22 7.73,6.08 7.77,11.61q0.13,17.48 0.05,35.02a0.51,0.51 0 0 0 0.51,0.51l13.46,-0.01q0.65,0 0.65,-0.64q0.24,-25.35 -0.22,-39.16c-0.53,-15.91 -15.09,-20.55 -28.26,-16.72c-5.11,1.48 -6.47,4.17 -9.01,8.08q-0.94,1.44 -0.89,-0.27" id="svg_30"/>
   <path stroke="#808080" vector-effect="non-scaling-stroke" d="m1264.97,617.23l38.76,-0.01q0.5,0 0.54,-0.5c1.6,-17.95 -7.63,-33.49 -27.33,-32.9c-22.6,0.67 -31.03,21.91 -25.76,41.22c3.09,11.3 13.38,17.73 24.91,17.95c13.08,0.25 24.31,-5.96 27.34,-19.23a0.42,0.41 6.5 0 0 -0.41,-0.51l-13.46,0q-0.53,0 -0.66,0.51q-2.06,8.25 -10.47,8.91c-9.59,0.75 -13.39,-6.49 -14.13,-14.71q-0.06,-0.73 0.67,-0.73" id="svg_31"/>
   <path stroke="#808080" vector-effect="non-scaling-stroke" d="m1329.21,593.22l-0.04,-7.34a0.63,0.63 0 0 0 -0.63,-0.62l-13.28,0.02q-0.71,0 -0.71,0.71l0,54.91a0.61,0.6 90 0 0 0.6,0.61l13.38,-0.01q0.66,0 0.66,-0.66q-0.09,-13.99 0.03,-27.4c0.08,-9.72 3.99,-22.15 16.7,-18.83c5.07,1.33 6.78,6.08 6.82,10.88q0.13,16.52 0.08,35.34q0,0.67 0.67,0.67l13.29,0q0.7,0 0.7,-0.7q-0.06,-16.26 0.02,-31.66q0.03,-6.71 -0.87,-11.78c-2.51,-14.08 -19.8,-15.88 -30.26,-11.36c-3.47,1.5 -4.65,4.46 -6.54,7.4q-0.61,0.96 -0.62,-0.18" id="svg_32"/>
   <path stroke="#808080" vector-effect="non-scaling-stroke" d="m1582.3337,610.1885a26.37,26.37 0 0 0 -26.5077,-26.2316l-5.14,0.027a26.37,26.37 0 0 0 -26.2315,26.5077l0.0318,6.0799a26.37,26.37 0 0 0 26.5077,26.2316l5.14,-0.027a26.37,26.37 0 0 0 26.2315,-26.5077l-0.0318,-6.0799" id="svg_33"/>
   <path stroke="#808080" vector-effect="non-scaling-stroke" d="m1672.38,632.77q0.45,5.09 -0.35,9.75c-1.6,9.38 -10.48,12.05 -18.72,10.55q-7.88,-1.44 -9.06,-8.58a0.56,0.55 85 0 0 -0.54,-0.46l-13,0.02q-0.58,0 -0.53,0.57c0.86,11.08 8.45,17.47 19.11,19.1c13.48,2.05 29.45,-0.55 35.3,-13.93c2,-4.58 2.49,-9.75 2.5,-14.76q0.03,-23.51 0.02,-49.13a0.62,0.62 0 0 0 -0.62,-0.62l-13.27,-0.01q-0.76,0 -0.75,0.76l0.07,4.96q0.03,1.71 -0.94,0.3c-1.27,-1.83 -2.15,-4.25 -4.25,-5.25c-4.68,-2.22 -10.42,-2.62 -15.5,-2.01c-10.34,1.23 -18.77,8.25 -21.61,18.2c-4.46,15.61 -0.38,34.07 16.93,38.78c5.99,1.62 17.99,1.31 22.06,-4.46q1.26,-1.8 2.59,-3.92q0.49,-0.76 0.56,0.14" id="svg_34"/>
   <path stroke="#808080" vector-effect="non-scaling-stroke" d="m1732.32,634.67q0.52,2.72 0.76,6.03q0.06,0.81 0.87,0.81l13.03,-0.01q0.62,0 0.54,-0.61c-1.66,-11.44 -1.07,-23.29 -1.04,-34.88q0.02,-6.37 -1.43,-10.8c-3.38,-10.37 -16.06,-12.28 -25.76,-11.14c-10.56,1.25 -19.11,7.77 -19.73,18.95a0.65,0.64 1.7 0 0 0.65,0.68l12.6,-0.16a1.01,1.01 0 0 0 0.99,-0.91q0.9,-8.42 9.27,-8.53c9.06,-0.13 8.56,5.7 8.96,12.48q0.04,0.72 -0.67,0.69c-12.4,-0.38 -32.68,1.48 -33.86,17.84c-1.28,17.62 18.09,21.24 30.42,15.14c1.98,-0.97 2.85,-3.67 3.61,-5.65q0.52,-1.36 0.79,0.07" id="svg_35"/>
   <path stroke="#808080" vector-effect="non-scaling-stroke" d="m1774.73,593.04l0.05,-7.02a0.76,0.76 0 0 0 -0.76,-0.76l-13.31,0.04q-0.5,0 -0.5,0.49l0,55.19q0,0.53 0.52,0.53l13.51,-0.01a0.54,0.54 0 0 0 0.54,-0.55q-0.17,-16.02 0.1,-28.45c0.16,-7.76 3.09,-18.58 13,-18.41c9.14,0.17 10.56,6.36 10.59,14.25q0.05,14.74 0,32.41q0,0.76 0.76,0.76l13.23,-0.01q0.61,0 0.61,-0.61q0.04,-16.9 -0.03,-34.73q-0.03,-5.64 -1.1,-10.09c-3.07,-12.66 -18.86,-14.12 -28.9,-10.54c-4.41,1.57 -5.2,4.47 -7.68,7.73q-0.63,0.83 -0.63,-0.22" id="svg_36"/>
   <path stroke="#808080" vector-effect="non-scaling-stroke" d="m1918.03,617.22l38.52,0a0.8,0.79 -87.2 0 0 0.79,-0.72c1.29,-14.99 -5.41,-30.26 -21.69,-32.41c-17.59,-2.31 -31.66,8.66 -32.92,26.55c-1.28,18.18 8.05,32.42 27.5,32.35c12.6,-0.04 23.36,-6.46 26.23,-19.21a0.44,0.44 0 0 0 -0.43,-0.54l-13.27,0.01q-0.61,0 -0.77,0.59q-2.27,8.44 -11.06,8.88c-9.15,0.45 -13,-6.82 -13.52,-14.83q-0.05,-0.67 0.62,-0.67" id="svg_37"/>
   <path stroke="#808080" vector-effect="non-scaling-stroke" d="m2296.98,617.23l38.56,-0.02q0.58,0 0.63,-0.58c1.19,-14.29 -4.84,-29.89 -20.72,-32.35c-26.31,-4.08 -39.26,19.21 -32.03,42.03c5.7,18.04 30.76,21.36 44.03,10.61q5.92,-4.79 7.82,-13.08a0.48,0.48 0 0 0 -0.47,-0.59l-13.53,0a0.44,0.44 0 0 0 -0.43,0.34c-1.79,7.8 -9.38,10.91 -16.45,8.33c-5.58,-2.03 -7.84,-8.41 -8.15,-13.91q-0.04,-0.78 0.74,-0.78" id="svg_38"/>
   <path stroke="#808080" vector-effect="non-scaling-stroke" d="m2417.93,617.23l38.62,-0.02q0.52,0 0.58,-0.52c2.4,-22.07 -13.06,-37.61 -34.98,-31.67c-15.8,4.29 -22.02,21.22 -19.01,36.4q3.64,18.32 22.03,21.23q8.37,1.32 16.53,-1.79q11.19,-4.27 14.59,-16.61q0.28,-1 -0.76,-1l-13.01,0q-0.55,0 -0.69,0.53q-2.27,8.5 -10.98,8.93c-9.23,0.46 -12.86,-6.57 -13.62,-14.72q-0.07,-0.76 0.7,-0.76" id="svg_39"/>
   <path stroke="#808080" vector-effect="non-scaling-stroke" d="m2481.93,593.12l0.18,-7.3a0.55,0.55 0 0 0 -0.55,-0.56l-13.58,0q-0.52,0 -0.52,0.51l-0.01,55.21q0,0.52 0.53,0.52l13.55,0a0.53,0.53 0 0 0 0.53,-0.53q-0.09,-13.09 -0.03,-25.89c0.04,-7.32 1.74,-19.94 11.35,-20.93c6.25,-0.65 11.31,2.1 11.99,8.92q0.4,3.92 0.39,7.83q-0.04,16.48 -0.02,30.3a0.31,0.31 0 0 0 0.31,0.31l13.67,-0.01q0.56,0 0.56,-0.55q0.15,-22.52 -0.12,-38.43c-0.29,-17.38 -16.46,-22.04 -30.36,-16.8c-3.69,1.39 -5.13,4.69 -7.26,7.61q-0.64,0.86 -0.61,-0.21" id="svg_40"/>
   <path stroke="#808080" vector-effect="non-scaling-stroke" d="m1606.73,594.44l0.03,-8.42a0.74,0.73 0 0 0 -0.74,-0.73l-13.29,-0.03a0.51,0.51 0 0 0 -0.51,0.51l-0.04,55.38a0.35,0.35 0 0 0 0.35,0.35l13.67,0a0.55,0.55 0 0 0 0.55,-0.55q-0.03,-13.63 0,-25.29c0.01,-8.26 1.59,-17.06 11.15,-19.19q3.38,-0.75 6.28,-0.4a0.68,0.68 0 0 0 0.76,-0.67l0.04,-10.2q0,-0.93 -0.92,-1.07q-6.61,-0.98 -11.21,2.22c-2.61,1.82 -3.89,5.53 -5.62,8.23q-0.5,0.78 -0.5,-0.14" id="svg_41"/>
   <path stroke="#808080" vector-effect="non-scaling-stroke" d="m781.59,585.76a0.5,0.5 0 0 0 -0.5,-0.5l-13.58,0a0.5,0.5 0 0 0 -0.5,0.5l0,55.24a0.5,0.5 0 0 0 0.5,0.5l13.58,0a0.5,0.5 0 0 0 0.5,-0.5l0,-55.24" id="svg_42"/>
   <path stroke="#808080" vector-effect="non-scaling-stroke" d="m1471.17,629.25l-13.35,-43.23a1.1,1.09 81.3 0 0 -1.04,-0.77l-14.99,0.01a0.35,0.34 79.5 0 0 -0.32,0.47l22.39,57.46a2.7,2.69 -45.7 0 1 0.02,1.93q-3.69,9.96 -14.65,8.1a0.57,0.57 0 0 0 -0.66,0.56l-0.03,8.88a0.76,0.75 3.3 0 0 0.68,0.76c8.16,0.85 16.37,0.32 21.87,-6.25q4.15,-4.95 6.82,-11.78q11.3,-29 23.06,-59.44a0.49,0.49 0 0 0 -0.46,-0.67l-14.46,-0.01a1.02,1.01 8.5 0 0 -0.97,0.71l-13.19,43.27q-0.36,1.18 -0.72,0" id="svg_43"/>
   <path stroke="#808080" vector-effect="non-scaling-stroke" d="m1840.48,585.78a0.52,0.52 0 0 0 -0.52,-0.52l-13.58,0a0.52,0.52 0 0 0 -0.52,0.52l0,55.2a0.52,0.52 0 0 0 0.52,0.52l13.58,0a0.52,0.52 0 0 0 0.52,-0.52l0,-55.2" id="svg_44"/>
   <path stroke="#808080" vector-effect="non-scaling-stroke" d="m2370.44,629.46a0.36,0.36 0 0 1 -0.69,0l-13.72,-43.94a0.36,0.36 0 0 0 -0.34,-0.25l-15.4,-0.02a0.36,0.36 0 0 0 -0.34,0.49l21.6,55.53a0.36,0.36 0 0 0 0.34,0.23l15.81,0a0.36,0.36 0 0 0 0.34,-0.23l21.49,-55.51a0.36,0.36 0 0 0 -0.34,-0.49l-14.94,0a0.36,0.36 0 0 0 -0.35,0.25l-13.46,43.94" id="svg_45"/>
   <path stroke="#808080" vector-effect="non-scaling-stroke" d="m1880.13,596.18l-29.23,35.4a2.71,2.69 -25.3 0 0 -0.62,1.72l-0.01,7.71q0,0.5 0.49,0.5l45.77,-0.01a0.28,0.28 0 0 0 0.28,-0.28l-0.02,-9.2a0.28,0.27 88.9 0 0 -0.27,-0.27l-29.74,0a0.28,0.28 0 0 1 -0.22,-0.46q14.22,-17.15 28.59,-34.19q1.11,-1.31 1.27,-4.09q0.19,-3.36 -0.1,-6.79q-0.04,-0.51 -0.56,-0.51l-42.99,-0.02q-0.54,0 -0.54,0.54l-0.01,8.72q-0.01,0.49 0.48,0.49l27.08,-0.02q0.98,0 0.35,0.76" id="svg_46"/>
   <path stroke="#808080" vector-effect="non-scaling-stroke" d="m751.75,594.08a0.49,0.49 0 0 0 -0.49,-0.49l-47.56,0a0.49,0.49 0 0 0 -0.49,0.49l0,6.86a0.49,0.49 0 0 0 0.49,0.49l47.56,0a0.49,0.49 0 0 0 0.49,-0.49l0,-6.86" id="svg_47"/>
   <path stroke="#808080" vector-effect="non-scaling-stroke" d="m751.75,615.25a0.5,0.5 0 0 0 -0.5,-0.5l-47.52,0a0.5,0.5 0 0 0 -0.5,0.5l0,6.8a0.5,0.5 0 0 0 0.5,0.5l47.52,0a0.5,0.5 0 0 0 0.5,-0.5l0,-6.8" id="svg_48"/>
   <path stroke="#808080" vector-effect="non-scaling-stroke" d="m1284.83,287.18c-0.77,-15.15 -9.08,-26.09 -24.37,-29.45q-8.97,-1.97 -16.94,-2.16q-24.9,-0.58 -49.13,-0.17a0.36,0.35 -0.8 0 0 -0.35,0.35l0.01,68.47q0,0.82 0.82,0.82q20.95,-0.05 41.12,-0.03c10.5,0.01 20.6,-0.45 29.94,-4.21c14.26,-5.75 19.64,-18.92 18.9,-33.62" id="svg_49"/>
   <path stroke="#808080" vector-effect="non-scaling-stroke" d="m1273.63,370.65q-3.13,-1.24 -6,-1.88q-11.47,-2.56 -28.34,-2.56q-22.58,0.01 -44.95,0.01a0.3,0.3 0 0 0 -0.3,0.3l0.01,76.51q0,0.69 0.68,0.69q28.29,0.12 57.16,0c5.08,-0.03 10.61,-0.25 15.49,-1.46c16.65,-4.15 26.71,-17.51 27.41,-34.62c0.67,-16.43 -4.83,-30.51 -21.16,-36.99" id="svg_50"/>
   <path stroke="#ff8b8b" vector-effect="non-scaling-stroke" d="m773.09,422.13c40.81,-0.67 40.24,-65.3 34.07,-91.48c-2.79,-11.8 -8.89,-25.6 -20.57,-30.8q-6.1,-2.72 -11.97,-2.82q-13.92,-0.24 -28.32,-0.08a0.45,0.45 0 0 0 -0.44,0.45l0.01,124.39q0,0.4 0.39,0.4q13.91,0.16 26.83,-0.06" id="svg_51"/>
   <path stroke="#808080" vector-effect="non-scaling-stroke" d="m2045.1,413.78q-4.05,10.09 -1.38,21.57c3.92,16.88 21.81,20.14 37.14,18.42c17.59,-1.97 30.72,-15.32 34.05,-32.53c1.78,-9.21 1.19,-19.55 1.08,-28.82a0.36,0.36 0 0 0 -0.34,-0.36c-15.77,-1.19 -30.65,-1.03 -45.4,2.66c-10.38,2.6 -21.07,8.94 -25.15,19.06" id="svg_52"/>
   <path stroke="#808080" vector-effect="non-scaling-stroke" d="m874.16,603.08c-3.61,9.09 -2.53,29.09 11.76,29.66c7.75,0.3 13.35,-4.5 14.62,-12.22c0.9,-5.5 1.16,-13.1 -1.01,-18.32c-2.26,-5.44 -7.89,-8.68 -13.73,-8.07q-8.44,0.87 -11.64,8.95" id="svg_53"/>
   <path stroke="#808080" vector-effect="non-scaling-stroke" d="m1210.24,594.1c-13.02,0.79 -15.11,16.24 -13.07,25.91c1.26,5.98 5.1,11.71 11.46,12.59c7.54,1.03 13.95,-3.08 15.75,-10.66c1.36,-5.76 1.84,-15.62 -1.47,-21.3c-2.65,-4.54 -7.45,-6.86 -12.67,-6.54" id="svg_54"/>
   <path stroke="#808080" vector-effect="non-scaling-stroke" d="m2002,629.8c5.21,-4.25 5.79,-11.2 5.72,-17.89c-0.08,-8.43 -2.72,-15.93 -11.46,-17.58c-19.29,-3.66 -21.86,26.4 -11.18,35.58c4.54,3.9 12.18,3.75 16.92,-0.11" id="svg_55"/>
   <path stroke="#808080" vector-effect="non-scaling-stroke" d="m2204.72,580.21l0,49.42a0.39,0.39 0 0 0 0.39,0.39l12.4,0a21.95,21.65 90 0 0 21.65,-21.95l0,-6.3a21.95,21.65 -90 0 0 -21.65,-21.95l-12.4,0a0.39,0.39 0 0 0 -0.39,0.39" id="svg_56"/>
   <path stroke="#808080" vector-effect="non-scaling-stroke" d="m941.19,607.79l23.54,-0.16a0.55,0.55 0 0 0 0.54,-0.56l0,-0.15a12.92,12.19 89.6 0 0 -12.28,-12.83l-0.26,0a12.92,12.19 89.6 0 0 -12.1,13.01l0,0.15a0.55,0.55 0 0 0 0.56,0.54" id="svg_57"/>
   <path stroke="#808080" vector-effect="non-scaling-stroke" d="m1029.01,628.45c6.9,-7.52 6.33,-24.58 -1.16,-31.4c-5.26,-4.79 -14.58,-3.62 -19.02,1.75c-4.61,5.56 -4.47,16.37 -3.18,22.88c2.19,11 15.89,14.93 23.36,6.77" id="svg_58"/>
   <path stroke="#808080" vector-effect="non-scaling-stroke" d="m1070.28,607.82l23.68,-0.2a0.36,0.36 0 0 0 0.36,-0.37l-0.01,-0.16a13.16,12.01 89.5 0 0 -12.12,-13.05l-0.38,0a13.16,12.01 89.5 0 0 -11.89,13.27l0,0.16a0.36,0.36 0 0 0 0.36,0.35" id="svg_59"/>
   <path stroke="#808080" vector-effect="non-scaling-stroke" d="m1265.31,607.67l23.7,0.04a0.3,0.3 0 0 0 0.3,-0.3l0,-0.36a13,12.14 -89.9 0 0 -12.12,-13.02l-0.02,0a13,12.14 -89.9 0 0 -12.16,12.98l0,0.36a0.3,0.3 0 0 0 0.3,0.3" id="svg_60"/>
   <path stroke="#808080" vector-effect="non-scaling-stroke" d="m1539.8,607.57c-1.23,8.42 -0.33,19.98 8.08,24c5.2,2.48 12.12,1.14 15.66,-3.74c6.59,-9.1 5.99,-32.55 -8.84,-33.71c-8.67,-0.68 -13.75,5.59 -14.9,13.45" id="svg_61"/>
   <path stroke="#808080" vector-effect="non-scaling-stroke" d="m1659.81,594.17c-15.26,-1.44 -17.86,15.32 -15.17,26.1c1.47,5.88 5.58,10.71 11.84,11.25c13.17,1.14 16.41,-10.41 16.07,-20.98c-0.26,-8.38 -4.04,-15.55 -12.74,-16.37" id="svg_62"/>
   <path stroke="#808080" vector-effect="non-scaling-stroke" d="m1730.39,627.37q2.14,-3.63 1.51,-10.6q-0.04,-0.5 -0.54,-0.54c-6.47,-0.48 -18.98,-0.22 -18.85,9.13q0.09,5.99 5.57,7.05q8.36,1.63 12.31,-5.04" id="svg_63"/>
   <path stroke="#808080" vector-effect="non-scaling-stroke" d="m1918.21,607.76l24,-0.12a0.21,0.21 0 0 0 0.2,-0.21l0,-0.23a13.24,12.2 89.7 0 0 -12.27,-13.18l-0.02,0a13.24,12.2 89.7 0 0 -12.13,13.3l0,0.23a0.21,0.21 0 0 0 0.22,0.21" id="svg_64"/>
   <path stroke="#808080" vector-effect="non-scaling-stroke" d="m2297.19,607.71l23.5,0a0.55,0.55 0 0 0 0.55,-0.55l0,-0.16a12.93,12.24 -90 0 0 -12.24,-12.93l-0.12,0a12.93,12.24 90 0 0 -12.24,12.93l0,0.16a0.55,0.55 0 0 0 0.55,0.55" id="svg_65"/>
   <path stroke="#808080" vector-effect="non-scaling-stroke" d="m2418.18,607.77l23.8,-0.12a0.24,0.24 0 0 0 0.23,-0.24l0,-0.35a13.11,12.03 89.7 0 0 -12.1,-13.05l-0.22,0a13.11,12.03 89.7 0 0 -11.96,13.17l0,0.35a0.24,0.24 0 0 0 0.25,0.24" id="svg_66"/>
  </g>
 </g>

</svg>