<svg xmlns="http://www.w3.org/2000/svg" xmlns:xlink="http://www.w3.org/1999/xlink">

  <symbol viewBox="0 0 26 23" id="whatsapp">
    <path d="M.057 24l1.687-6.163a11.867 11.867 0 0 1-1.587-5.946C.16 5.335 5.495 0 12.05 0a11.817 11.817 0 0 1 8.413 3.488 11.824 11.824 0 0 1 3.48 8.414c-.003 6.557-5.338 11.892-11.893 11.892a11.9 11.9 0 0 1-5.688-1.448L.057 24zm6.597-3.807c1.676.995 3.276 1.591 5.392 1.592 5.448 0 9.886-4.434 9.889-9.885.002-5.462-4.415-9.89-9.881-9.892-5.452 0-9.887 4.434-9.889 9.884-.001 2.225.651 3.891 1.746 5.634l-.999 3.648 3.742-.981zm11.387-5.464c-.074-.124-.272-.198-.57-.347-.297-.149-1.758-.868-2.031-.967-.272-.099-.47-.149-.669.149-.198.297-.768.967-.941 1.165-.173.198-.347.223-.644.074-.297-.149-1.255-.462-2.39-1.475-.883-.788-1.48-1.761-1.653-2.059-.173-.297-.018-.458.13-.606.134-.133.297-.347.446-.521.151-.172.2-.296.3-.495.099-.198.05-.372-.025-.521-.075-.148-.669-1.611-.916-2.206-.242-.579-.487-.501-.669-.51l-.57-.01c-.198 0-.52.074-.792.372s-1.04 1.016-1.04 2.479 1.065 2.876 1.213 3.074c.149.198 2.095 3.2 5.076 4.487.709.306 1.263.489 1.694.626.712.226 1.36.194 1.872.118.571-.085 1.758-.719 2.006-1.413.248-.695.248-1.29.173-1.414z"></path>
  </symbol>
  
  <symbol viewBox="0 0 28 26" id="linkdin">
    <path d="M4.98 3.5C4.98 4.881 3.87 6 2.5 6S.02 4.881.02 3.5C.02 2.12 1.13 1 2.5 1s2.48 1.12 2.48 2.5zM5 8H0v16h5V8zm7.982 0H8.014v16h4.969v-8.399c0-4.67 6.029-5.052 6.029 0V24H24V13.869c0-7.88-8.922-7.593-11.018-3.714V8z"></path>
  </symbol>

  <symbol viewBox="0 0 18 13" id="email">
    <path d="M2 0h14a2 2 0 0 1 2 2v9a2 2 0 0 1-2 2H2a2 2 0 0 1-2-2V2a2 2 0 0 1 2-2zm13.144 1.84L9 5.148 2.856 1.84a.75.75 0 1 0-.712 1.32l6.5 3.5c.222.12.49.12.712 0l6.5-3.5a.75.75 0 0 0-.712-1.32z" fill="#FFF"></path>
  </symbol>

  
	<symbol viewBox="0 0 15 15" id="twitter">
		<path
			d="M4.72 13.19c5.66 0 8.76-4.38 8.76-8.17l-.01-.37c.6-.41 1.12-.91 1.53-1.49-.56.23-1.16.39-1.77.45.64-.36 1.12-.92 1.35-1.59-.6.34-1.26.57-1.95.7-1.16-1.16-3.11-1.21-4.35-.13-.8.7-1.14 1.75-.89 2.74-2.47-.11-4.78-1.21-6.34-3C.23 3.64.65 5.32 2 6.16c-.49-.01-.98-.14-1.4-.36v.04c0 1.37 1.03 2.54 2.47 2.82-.45.11-.93.13-1.39.05.4 1.17 1.56 1.97 2.88 2-1.09.8-2.44 1.23-3.82 1.23-.25 0-.49-.01-.73-.04 1.4.84 3.03 1.29 4.71 1.29" />
	</symbol>

	
	<symbol viewBox="0 0 26 23" id="insta">
		<path
			d="M12 2.163c3.204 0 3.584.012 4.85.07 3.252.148 4.771 1.691 4.919 4.919.058 1.265.069 1.645.069 4.849 0 3.205-.012 3.584-.069 4.849-.149 3.225-1.664 4.771-4.919 4.919-1.266.058-1.644.07-4.85.07-3.204 0-3.584-.012-4.849-.07-3.26-.149-4.771-1.699-4.919-4.92-.058-1.265-.07-1.644-.07-4.849 0-3.204.013-3.583.07-4.849.149-3.227 1.664-4.771 4.919-4.919 1.266-.057 1.645-.069 4.849-.069zM12 0C8.741 0 8.333.014 7.053.072 2.695.272.273 2.69.073 7.052.014 8.333 0 8.741 0 12c0 3.259.014 3.668.072 4.948.2 4.358 2.618 6.78 6.98 6.98C8.333 23.986 8.741 24 12 24c3.259 0 3.668-.014 4.948-.072 4.354-.2 6.782-2.618 6.979-6.98.059-1.28.073-1.689.073-4.948 0-3.259-.014-3.667-.072-4.947-.196-4.354-2.617-6.78-6.979-6.98C15.668.014 15.259 0 12 0zm0 5.838a6.162 6.162 0 1 0 0 12.324 6.162 6.162 0 0 0 0-12.324zM12 16a4 4 0 1 1 0-8 4 4 0 0 1 0 8zm6.406-11.845a1.44 1.44 0 1 0 0 2.881 1.44 1.44 0 0 0 0-2.881z">
		</path>
	</symbol>





  <symbol xmlns="http://www.w3.org/2000/svg" viewBox="0 0 26 23" id="call">
    <path d="M12 2c5.514 0 10 4.486 10 10s-4.486 10-10 10S2 17.514 2 12 6.486 2 12 2zm0-2C5.373 0 0 5.373 0 12s5.373 12 12 12 12-5.373 12-12S18.627 0 12 0zm4.5 17.311l-1.76-3.397-1.032.505c-1.12.543-3.4-3.91-2.305-4.497l1.042-.513L10.698 6l-1.053.52c-3.601 1.877 2.117 12.991 5.8 11.308l1.055-.517z"></path>
  </symbol>


  <symbol xmlns="http://www.w3.org/2000/svg" viewBox="0 0 89.713 94" id="ico-4">
    <defs>
      <clipPath id="a">
        <path fill="#fff" d="M0 0h89.713v93.224H0z"></path>
      </clipPath>
    </defs>
    <g transform="translate(-1412 -4095)">
      <g transform="translate(1412 4095)" clip-path="url(#a)" fill="#fff">
        <path d="M84.843 39.865a39.657 39.657 0 00-24.28-31.32h18.885a5.221 5.221 0 008.752 2.254 5.294 5.294 0 00-.029-7.445 5.362 5.362 0 00-7.432.022 5.183 5.183 0 00-1.291 2.254H51.586L51.57-.001 36.918.025l.015 5.605H10.266a5.222 5.222 0 00-1.314-2.275 5.364 5.364 0 00-7.434.02 5.288 5.288 0 00.026 7.443 5.2 5.2 0 008.725-2.273H30.3A39.629 39.629 0 006.029 39.868H2.343l.028 9.9 9.915-.009-.025-9.9h-3.3a36.736 36.736 0 0127.978-30.4l.013 5.286 14.655-.023-.007-5.713a36.763 36.763 0 0130.307 30.859H78.8l.028 9.9 9.915-.009-.023-9.9zM82.806 5.424a2.325 2.325 0 013.3-.007 2.344 2.344 0 11-3.3.007M6.9 8.754a2.349 2.349 0 01-3.309-3.33 2.322 2.322 0 013.3-.007A2.373 2.373 0 016.9 8.754m2.454 34.025l.012 4.071h-4.09l-.01-4.071zm39.334-30.956l-8.825.015-.007-2.923v-.37l-.006-2.579V5.63l-.007-2.7 8.825-.015.007 2.712v.085l.007 2.83v.092zm33.048 35.03l-.01-4.071h4.088l.01 4.071z"></path>
        <path d="M41.948 17.463L22.835 56.7l1.075.7c.054.035 5.406 3.558 7.913 7.73a33.944 33.944 0 013.667 9.463h-2.376v4.791h-3.005v13.837h29V79.386h-3.01v-4.791h-2.375a33.953 33.953 0 013.67-9.453c2.494-4.153 7.853-7.689 7.909-7.724l1.075-.7-19.1-39.251zm2.658 30.063a2.669 2.669 0 11-2.668 2.669 2.673 2.673 0 012.668-2.669M56.195 82.3v8.009H33.02V82.3h23.175zM36.03 79.386v-1.877h17.156v1.877zm18.866-15.744a37.068 37.068 0 00-4.161 10.953H38.476a37.064 37.064 0 00-4.16-10.963 30.463 30.463 0 00-7.753-7.931l16.586-34.049v23.18a5.583 5.583 0 102.914 0v-23.2l16.588 34.085a30.4 30.4 0 00-7.756 7.925"></path>
      </g>
      <path fill="#ff0219" d="M1442 4174h30v15h-30z"></path>
      <circle cx="6" cy="6" r="6" transform="translate(1451 4139)" fill="#ff0219"></circle>
    </g>
  </symbol>


  <symbol xmlns="http://www.w3.org/2000/svg" viewBox="0 0 64.186 64" id="da">
    <defs>
      <clipPath id="a">
        <path fill="none" d="M0 0h64.186v64H0z"></path>
      </clipPath>
    </defs>
    <path fill="red" d="M0 0h64.186v64H0z"></path>
    <g clip-path="url(#a)" fill="#fff">
      <path d="M15.86 15.015h7.723c4.881 0 7.278 2.954 7.278 8.38v17.147c0 5.425-2.4 8.381-7.278 8.381H15.86zm4.882 4.843v24.22h2.751c1.553 0 2.485-.872 2.485-3.293V23.152c0-2.422-.932-3.293-2.485-3.293zm28.976 29.065h-4.926l-.844-6.152h-5.991l-.843 6.152h-4.483l4.97-33.908h7.146zM38.574 38.169h4.7l-2.352-17.148z"></path>
    </g>
  </symbol>


  <symbol xmlns="http://www.w3.org/2000/svg" viewBox="0 0 80.511 82.481" id="arrow">
    <path d="M42.266 0l-9.751 9.406L56.2 34.486H0v14.866h56.358L33.908 73.97l11.3 8.511 35.3-41.451z" fill="#fff"></path>
  </symbol>

  <symbol xmlns="http://www.w3.org/2000/svg" viewBox="0 0 25.248 55.534" id="arrow1">
    <path d="M12.167.001v52.668m12.07-10.018L12.38 53.483 1.036 42.651" fill="none" stroke="#fff" stroke-width="3"></path>
  </symbol>

  <symbol xmlns="http://www.w3.org/2000/svg" viewBox="0 0 109.777 64.287" id="partner">
    <defs>
      <clipPath id="a">
        <path fill="#fff" d="M0 0h109.777v64.287H0z"></path>
      </clipPath>
    </defs>
    <g clip-path="url(#a)">
      <path d="M20.276 0L0 33.412l15.045 9.141 2.648-4.353 2.655 1.949a5.236 5.236 0 004.881 8.29 5.233 5.233 0 004.033 6.206 5.3 5.3 0 002.935-.22 5.238 5.238 0 008.355 4.5 5.241 5.241 0 008.57 3.99l3.641-3v-.022l4.829 3.476A4.866 4.866 0 0065.3 59.3a5.237 5.237 0 007.911-5.146 5.235 5.235 0 006.548-6.354 5.068 5.068 0 005.418-4.692 4.888 4.888 0 00-.017-.936l6.693-6.139 2.987 4.779 14.938-9.328L90.39.449 75.449 9.775 77.59 13.2l-6.229 2.28-8.867-3.167a8.494 8.494 0 00-6.905.524 23.019 23.019 0 00-11.953.367 109.15 109.15 0 01-11.028.409l2.713-4.472zm.651 2.678l11.717 7.114-18.277 30.084L2.65 32.753zm68.841.452l17.322 27.734-11.63 7.27L78.134 10.4zM59.91 13.768a6.521 6.521 0 011.929.379l9.535 3.4 7.277-2.665 12.155 19.471-6.326 5.8a5.052 5.052 0 00-1.16-1.348L61.025 20.71a19.3 19.3 0 01-14.8 1.774 1.336 1.336 0 01-.095-2.545 42.7 42.7 0 009.757-5.011 6.579 6.579 0 014.018-1.16m-9.67.4a21.3 21.3 0 012.955.2 40.483 40.483 0 01-7.716 3.741 3.288 3.288 0 00.217 6.254 21.274 21.274 0 0015.1-1.33l21.3 17.3a3.12 3.12 0 01-3.783 4.954L62.375 33.832a.974.974 0 00-1.135 1.582l15.377 11.05a3.288 3.288 0 01-3.836 5.336L58.26 41.37a.975.975 0 00-1.135 1.585l12.817 9.206a3.29 3.29 0 01-3.7 5.44c-.05-.037-.1-.07-.142-.1l-12.05-8.659a.974.974 0 00-1.135 1.58l9.223 6.626a2.92 2.92 0 01-3.4 4.741L54 58.387a5.232 5.232 0 00-5.907-7.576 5.233 5.233 0 00-4.594-5.8 5.1 5.1 0 00-1.068-.015 5.236 5.236 0 00-8.42-5.3l-.349.292A5.233 5.233 0 0025.1 36l-3.354 2.77-3.062-2.243 12.757-20.99a110.737 110.737 0 0012.575-.412 21.1 21.1 0 016.229-.958zM28.224 36.774q.165-.007.329 0a3.288 3.288 0 011.969 5.807l-3.883 3.2a3.287 3.287 0 01-4.182-5.068l3.878-3.213a3.305 3.305 0 011.892-.731zm8.959 3.673a3.288 3.288 0 012.251 5.822l-7.015 5.79a3.287 3.287 0 01-4.185-5.068l7.012-5.79a3.28 3.28 0 011.937-.754m5.517 6.488a3.29 3.29 0 012.286 5.807l-5.49 4.532a3.29 3.29 0 01-4.19-5.074l5.488-4.529a3.277 3.277 0 011.9-.736m6.813 5.677a3.287 3.287 0 011.984 5.8l-3.636 3a3.287 3.287 0 01-4.187-5.068l3.643-3a3.268 3.268 0 011.869-.726 2.918 2.918 0 01.329-.007z" fill="#fff"></path>
      <path d="M3.638 27.382L20.276-.001"></path>
    </g>
    <path d="M25.5 8.18l-6.113 11.01" fill="none" stroke="#ff0219" stroke-width="3"></path>
    <path d="M94.747 21.428l6.669 10.689" fill="none" stroke="#ff0219" stroke-width="3.001"></path>
    <path d="M25.5 8.18l-6.113 11.01" fill="none" stroke="#ff0219" stroke-width="3"></path>
    <path d="M94.747 21.428l6.669 10.689" fill="none" stroke="#ff0219" stroke-width="3.001"></path>
  </symbol>

  <symbol xmlns="http://www.w3.org/2000/svg" viewBox="0 0 98.2 75.72" id="asesor">
    <defs>
      <clipPath id="a">
        <path fill="#fff" d="M0 0h97v73.775H0z"></path>
      </clipPath>
    </defs>
    <path d="M3.242 17.199h15.77v28.862H66.3v11.374H25.229L12.37 69.038l-.014-11.6H3.242zm67.8 26.944l-49.677-.258V3.091h74.18v40.281h-10.7l-.017 13.485zM19.012.599v14.217H.6v45h9.634l.023 14.554 16.165-14.55H68.43V46.061h1.205l17.4 15.666.024-15.666H97.6V.599z" fill="#fff" stroke="#fff" stroke-width="1.2"></path>
    <g clip-path="url(#a)" fill="#ff1e1a" transform="translate(.6 .6)">
      <path d="M41.726 17.272a4.361 4.361 0 104.361 4.361 4.366 4.366 0 00-4.361-4.361m15.98 0a4.361 4.361 0 104.361 4.361 4.366 4.366 0 00-4.361-4.361m15.98 8.722a4.361 4.361 0 10-4.361-4.361 4.366 4.366 0 004.361 4.361"></path>
    </g>
  </symbol>

  <symbol xmlns="http://www.w3.org/2000/svg" viewBox="0 0 96.758 105.718" id="inte">
    <defs>
      <clipPath id="a">
        <path fill="none" d="M0 0h96.758v105.718H0z"></path>
      </clipPath>
    </defs>
    <g clip-path="url(#a)">
      <path d="M48.383 20.127a28.513 28.513 0 0123.558 44.577 44.375 44.375 0 00-7.02 16.38l-.9 4.233a4.248 4.248 0 01-4.181 3.387H36.925a4.248 4.248 0 01-4.181-3.387l-.9-4.233a44.376 44.376 0 00-7.02-16.38 28.513 28.513 0 0123.559-44.577m0 2.851A25.669 25.669 0 0027.175 63.1a47.261 47.261 0 017.454 17.394l.9 4.233a1.407 1.407 0 001.4 1.126h22.904a1.407 1.407 0 001.4-1.126l.9-4.233A47.262 47.262 0 0169.587 63.1a25.669 25.669 0 00-21.204-40.122" fill="#fff"></path>
      <path d="M30.747 48.641a1.426 1.426 0 01-2.851 0 20.5 20.5 0 0115.562-19.884 1.422 1.422 0 01.679 2.762 17.627 17.627 0 00-13.39 17.122" fill="#fff"></path>
      <path d="M35.969 94.597a2.044 2.044 0 110-4.087h24.82a2.044 2.044 0 110 4.087zm2.62 5.703a2.044 2.044 0 010-4.087h19.58a2.044 2.044 0 010 4.087h-1.544a8.985 8.985 0 01-16.493 0z" fill="#ff1e1a"></path>
      <path d="M49.804 12.119a1.426 1.426 0 11-2.851 0V1.426a1.426 1.426 0 112.851 0zm-26.057 9.612a1.426 1.426 0 01-2.016 2.016l-7.561-7.561a1.426 1.426 0 012.016-2.016zM12.119 46.953a1.426 1.426 0 110 2.851H1.426a1.426 1.426 0 110-2.851zm9.612 26.057a1.426 1.426 0 012.016 2.016l-7.561 7.561a1.426 1.426 0 01-2.016-2.016zm51.28 2.017a1.426 1.426 0 012.016-2.016l7.561 7.561a1.426 1.426 0 01-2.016 2.016zm11.628-25.223a1.426 1.426 0 110-2.851h10.693a1.426 1.426 0 010 2.851zm-9.613-26.057a1.426 1.426 0 01-2.016-2.016l7.561-7.561a1.426 1.426 0 012.016 2.016z" fill="#fff"></path>
    </g>
  </symbol>

  <symbol xmlns="http://www.w3.org/2000/svg" viewBox="0 0 97 97" id="multi">
    <defs>
      <clipPath id="a">
        <path transform="translate(.36 .261)" fill="none" d="M0 0h97v97H0z"></path>
      </clipPath>
    </defs>
    <g clip-path="url(#a)" transform="translate(-.36 -.261)">
      <path d="M18.81 48.382a.367.367 0 01.105.268l-.024 1.052a.384.384 0 01-.093.235c-2.526 2.865-3.8 5.741-3.782 8.545.031 4.559 4.168 8.259 9.42 8.425a.428.428 0 01.086.012h.227a.309.309 0 01.074-.012c5.248-.24 9.341-3.992 9.314-8.545-.018-2.8-1.327-5.661-3.887-8.5a.383.383 0 01-.095-.232l-.041-.977a.37.37 0 01.1-.272.364.364 0 01.266-.114h17.321a.354.354 0 01.277.146c.022 0 .037-.022.058-.022h.234V30.845l-.46.021c-2.942 2.625-5.935 3.964-8.894 3.985h-.047c-4.9 0-8.94-4.335-9.24-9.912a.3.3 0 01-.021-.115v-.341a.4.4 0 01.018-.154c.2-5.615 4.219-10.032 9.161-10.068h.058c2.942 0 5.93 1.3 8.888 3.877l.539.012V1.742c-.429.022-1.147.056-1.881.09-1.153.053-2.336.108-2.436.115A46.729 46.729 0 001.73 48.271h16.815a.369.369 0 01.265.111" fill="#ff1e1a"></path>
      <path d="M48.86 50.246a1.48 1.48 0 01-1.48-1.48v-15.8a13.777 13.777 0 01-8.236 3.122h-.055c-5.463 0-9.963-4.736-10.344-10.847a1.567 1.567 0 01-.028-.29v-.181l-.007-.17a1.531 1.531 0 01.028-.368c.309-6.124 4.772-10.914 10.257-10.951h.062a13.874 13.874 0 018.319 3.1V1.48A1.479 1.479 0 0148.86 0a48.5 48.5 0 0148.607 44.411 1.48 1.48 0 01-2.949.26A45.538 45.538 0 0050.34 2.983v15.671a1.471 1.471 0 01-.445 1.058 1.354 1.354 0 01-1.068.42l-1.054-.024a1.479 1.479 0 01-.943-.368c-2.641-2.325-5.256-3.5-7.767-3.5h-.044c-3.963.027-7.182 3.689-7.329 8.336a.952.952 0 01-.009.132v.068a.832.832 0 01.007.1c.212 4.633 3.456 8.249 7.4 8.249h.037c2.524-.016 5.137-1.227 7.765-3.6a1.485 1.485 0 01.928-.379l.978-.041a1.5 1.5 0 011.088.408 1.482 1.482 0 01.456 1.07v18.184a1.479 1.479 0 01-1.48 1.48" fill="#fff"></path>
      <path d="M24.543 68.9a1.486 1.486 0 01-.3-.031c-6.124-.309-10.914-4.767-10.952-10.248a13.808 13.808 0 013.1-8.375H1.48A1.48 1.48 0 010 48.767 48.5 48.5 0 0144.437.19a1.48 1.48 0 01.263 2.948A45.533 45.533 0 002.983 47.287h15.683a1.476 1.476 0 011.478 1.514l-.024 1.052a1.484 1.484 0 01-.368.943c-2.341 2.656-3.52 5.282-3.505 7.807.027 3.958 3.693 7.175 8.342 7.32.044 0 .087 0 .13.009h.067c.048 0 .073-.009.108-.01 4.652-.21 8.279-3.471 8.255-7.428-.018-2.521-1.23-5.133-3.6-7.758a1.5 1.5 0 01-.38-.928l-.041-.977a1.477 1.477 0 011.478-1.545h14.355a1.48 1.48 0 110 2.959H32.986a13.754 13.754 0 013.122 8.228c.033 5.485-4.717 10.011-10.855 10.393a1.539 1.539 0 01-.289.028h-.173l-.163.007h-.086" fill="#fff"></path>
      <path d="M48.798 97.658A48.5 48.5 0 01.193 53.246a1.48 1.48 0 012.949-.26 45.538 45.538 0 0044.177 41.689V79.002a1.473 1.473 0 01.447-1.058 1.534 1.534 0 011.068-.42l1.052.025a1.478 1.478 0 01.943.367c2.643 2.325 5.256 3.5 7.768 3.5h.044c3.961-.027 7.181-3.689 7.327-8.336a1.093 1.093 0 01.007-.123v-.077c0-.036-.007-.068-.009-.1-.21-4.633-3.456-8.249-7.4-8.249h-.037c-2.523.018-5.137 1.227-7.765 3.6a1.485 1.485 0 01-.928.379l-.978.041a1.479 1.479 0 01-1.539-1.482V48.89a1.48 1.48 0 012.959 0v15.8a13.777 13.777 0 018.236-3.121h.056c5.464 0 9.964 4.736 10.343 10.852a1.532 1.532 0 01.028.286v.173l.007.163a1.5 1.5 0 01-.028.383c-.308 6.124-4.77 10.914-10.256 10.951H58.6a13.88 13.88 0 01-8.319-3.1v14.9a1.479 1.479 0 01-1.48 1.48" fill="#fff"></path>
      <path d="M53.087 97.472a1.48 1.48 0 01-.13-2.953A45.536 45.536 0 0094.674 50.37H78.991a1.478 1.478 0 01-1.48-1.514l.025-1.052a1.476 1.476 0 01.368-.943c2.339-2.657 3.52-5.284 3.505-7.807-.028-3.958-3.693-7.175-8.344-7.321-.043 0-.087 0-.129-.009h-.067a.889.889 0 01-.108.01c-4.654.212-8.279 3.474-8.255 7.429.016 2.521 1.228 5.133 3.6 7.758a1.474 1.474 0 01.38.929l.043.977a1.479 1.479 0 01-1.478 1.543H52.695a1.48 1.48 0 010-2.959h11.976a13.736 13.736 0 01-3.122-8.23c-.033-5.485 4.717-10.01 10.855-10.392a1.435 1.435 0 01.289-.03h.172l.166-.006a1.475 1.475 0 01.386.03c6.126.309 10.915 4.767 10.954 10.248a13.823 13.823 0 01-3.1 8.375h14.9a1.48 1.48 0 011.48 1.48 48.494 48.494 0 01-44.433 48.58c-.044 0-.089.006-.132.006" fill="#fff"></path>
    </g>
  </symbol>

  <symbol xmlns="http://www.w3.org/2000/svg" viewBox="0 0 116.479 119.014" id="adapt">
    <defs>
      <clipPath id="a">
        <path fill="none" d="M0 0h116.479v119.014H0z"></path>
      </clipPath>
    </defs>
    <g clip-path="url(#a)">
      <path d="M12.495 43.733a1.269 1.269 0 001.63-.754 47.307 47.307 0 0122.011-25.408l-2.687 8.924a1.27 1.27 0 002.431.732l3.54-11.75c.01-.03.012-.061.018-.091s.016-.072.021-.108a1.033 1.033 0 00.008-.141 1 1 0 000-.1 1.13 1.13 0 00-.02-.147.7.7 0 00-.02-.1.974.974 0 00-.049-.144c-.008-.022-.013-.045-.023-.067s-.012-.018-.017-.028l-.016-.04c-.006-.014-.018-.018-.025-.03a1.263 1.263 0 00-.276-.336c-.013-.012-.03-.022-.045-.034a1.261 1.261 0 00-.387-.2c-.007 0-.012-.008-.02-.011L26.82 10.353a1.27 1.27 0 00-.732 2.431l8.717 2.625a49.846 49.846 0 00-23.064 26.695 1.27 1.27 0 00.754 1.629m91.754 31.549a1.271 1.271 0 00-1.629.755 47.3 47.3 0 01-22.014 25.407l2.689-8.92a1.27 1.27 0 10-2.431-.732l-3.54 11.749c-.009.027-.009.053-.015.079-.01.043-.02.084-.026.129s0 .071-.006.108a1.327 1.327 0 000 .142c0 .035.008.07.013.1a.959.959 0 00.028.137 1.076 1.076 0 00.039.117c.01.026.017.056.03.083 0 .011.013.021.018.033s.008.023.015.034.017.017.021.027a1.237 1.237 0 00.283.342l.035.026a1.3 1.3 0 00.393.21c.006 0 .013.008.02.01l11.751 3.538a1.27 1.27 0 10.732-2.431l-8.717-2.625a49.844 49.844 0 0023.068-26.688 1.271 1.271 0 00-.754-1.63m-3.944-38.01l-8.92-2.687a1.27 1.27 0 00-.732 2.431l11.75 3.54c.028.008.056.01.083.016a1.144 1.144 0 00.121.023 1.1 1.1 0 00.127.008.946.946 0 00.248-.017c.038-.007.076-.012.116-.023a1.173 1.173 0 00.126-.044c.026-.01.053-.015.079-.027l.033-.019c.012-.006.023-.008.035-.015s.017-.017.027-.022a1.232 1.232 0 00.339-.279c.013-.014.021-.029.033-.044a1.289 1.289 0 00.206-.388c0-.006.008-.012.01-.02l3.541-11.75a1.27 1.27 0 10-2.431-.732l-2.625 8.715A49.855 49.855 0 0075.78 12.877a1.27 1.27 0 00-.874 2.383 47.308 47.308 0 0125.406 22.012m-58.47 66.482a47.3 47.3 0 01-25.407-22.012l8.92 2.687a1.27 1.27 0 00.732-2.431l-11.75-3.54c-.026-.008-.056-.01-.084-.016s-.081-.018-.122-.023a.861.861 0 00-.114-.007 1.23 1.23 0 00-.134 0c-.04 0-.078.008-.116.015a1.235 1.235 0 00-.124.025c-.046.013-.089.03-.134.046-.023.01-.048.015-.071.025l-.028.017c-.013.007-.027.01-.04.017-.03.017-.056.04-.084.058s-.065.04-.094.063-.061.055-.091.083a1.1 1.1 0 00-.091.091c-.025.03-.046.061-.069.093a1.047 1.047 0 00-.069.105 1.017 1.017 0 00-.055.113 1.048 1.048 0 00-.045.109c0 .013-.012.025-.016.038L9.217 91.061a1.27 1.27 0 102.431.732l2.625-8.716a49.845 49.845 0 0026.694 23.065 1.27 1.27 0 00.874-2.383" fill="#fff"></path>
      <path d="M10.961 70.202a10.691 10.691 0 006.705-19.021 10.689 10.689 0 10-13.673 16.43 10.644 10.644 0 006.968 2.591m101.525-19.021a10.691 10.691 0 103.99 8.326 10.648 10.648 0 00-3.99-8.326" fill="#ff1e1a"></path>
      <path d="M68.332 0h-19.92a1.693 1.693 0 00-1.694 1.692v19.921a1.7 1.7 0 001.694 1.693h19.92a1.693 1.693 0 001.692-1.693V1.692A1.693 1.693 0 0068.332 0M50.104 3.385h16.534v16.536H50.104zm18.228 92.32h-19.92a1.693 1.693 0 00-1.694 1.7v19.921a1.7 1.7 0 001.694 1.692h19.92a1.693 1.693 0 001.692-1.692V97.405a1.694 1.694 0 00-1.692-1.693m-18.228 3.385h16.534v16.536H50.104z" fill="#fff"></path>
    </g>
  </symbol>


  <symbol xmlns="http://www.w3.org/2000/svg" viewBox="0 0 79.044 79" id="dec">
    <defs>
      <clipPath id="a">
        <path fill="#fff" d="M0 0h79.044v79H0z"></path>
      </clipPath>
      <clipPath id="b">
        <path d="M204.627 38.405l5.387.816c2.033.509 2.868-.555 2.868-.555l9.189-9.794c1.152-.918 1.356-1.463 1.36-1.728v-.019a.305.305 0 00-.049-.182 1.407 1.407 0 00-1.251-1.448l-3.99-.6z" transform="translate(-204.627 -24.891)" fill="red"></path>
      </clipPath>
    </defs>
    <g clip-path="url(#a)">
      <path d="M38.27 17.178a23.6 23.6 0 1019.3 10.083l-2.118 2.115a20.641 20.641 0 11-5.833-5.829l2.115-2.115a23.4 23.4 0 00-13.468-4.254" fill="#fff"></path>
      <path d="M38.271 31.898a8.841 8.841 0 108.436 6.225l-2.55 2.55v.057a5.888 5.888 0 11-5.888-5.888h.057l2.55-2.55a8.771 8.771 0 00-2.607-.4" fill="#fff"></path>
      <path d="M69.509 23.231a4.141 4.141 0 01-.375.328A35.354 35.354 0 1155.44 9.866a4.049 4.049 0 01.33-.374l1.8-1.8a38.3 38.3 0 1013.738 13.74z" fill="#fff"></path>
      <path d="M78.922 8.928a1.472 1.472 0 00-1.178-1l-3.99-.6 3.045-3.041a1.472 1.472 0 00-2.081-2.082l-3.04 3.04-.6-3.99a1.472 1.472 0 00-2.5-.82l-10.934 10.93a1.47 1.47 0 00-.415 1.261l.929 6.134L37.23 39.687a1.472 1.472 0 102.082 2.081L60.24 20.84l6.134.93a1.474 1.474 0 001.261-.415l10.929-10.929a1.472 1.472 0 00.358-1.5m-18.67 3.993l8.347-8.341.493 3.254-2.75 2.75-5.593 5.593zm5.829 5.829l-3.254-.493 8.343-8.343 3.254.493z" fill="#fff"></path>
      <path d="M71.673 5.246L58.159 18.76l-.929-6.134s-.365-.481.415-1.261L68.035.975a1.789 1.789 0 012.039-.9 1.641 1.641 0 011.1 1.855z" fill="red"></path>
    </g>
    <g clip-path="url(#b)" transform="translate(60.24 7.328)">
      <path fill="red" d="M0 0h18.809v14.839H0z"></path>
    </g>
  </symbol>

  <symbol xmlns="http://www.w3.org/2000/svg" viewBox="0 0 107.164 107.074" id="def">
    <defs>
      <clipPath id="a">
        <path fill="none" d="M0 0h107.164v107.074H0z"></path>
      </clipPath>
    </defs>
    <g clip-path="url(#a)">
      <path d="M30.887 61.8A30.9 30.9 0 019.036 9.051a30.9 30.9 0 1143.7 43.7A30.7 30.7 0 0130.887 61.8m0-59.085a28.184 28.184 0 00-19.93 48.115 28.185 28.185 0 0039.859-39.859 28 28 0 00-19.929-8.254" fill="#fff"></path>
      <path d="M30.93 56.009q-1.137 0-2.283-.1A25.105 25.105 0 1144.253 9.644a1.359 1.359 0 01-1.448 2.3 22.394 22.394 0 1010.38 20.955 22.568 22.568 0 00-.06-4.623 1.36 1.36 0 112.7-.316 25.282 25.282 0 01.068 5.181A25.11 25.11 0 0130.93 56.009" fill="#fff"></path>
      <path d="M53.416 24.736a1.359 1.359 0 01-1.288-.928 22.542 22.542 0 00-5.659-8.984 1.358 1.358 0 111.892-1.949 25.275 25.275 0 016.343 10.072 1.359 1.359 0 01-1.289 1.789M63.67 69.701L47.807 53.838l6.016-6.016 15.863 15.864zM51.649 53.838L63.67 65.859l2.174-2.174-12.021-12.021zM28.443 39.669l-7.987-7.988a1.358 1.358 0 111.921-1.921l6.067 6.067 12.041-12.04a1.358 1.358 0 011.921 1.921z" fill="#fff"></path>
      <path d="M70.183 62.045s-2.484-2.82-6.031.1-3.9 4.327-2.8 6.608S78.337 87.191 84.62 93.437a6.575 6.575 0 007.4 1.664s5.758-1.995 4.231-7.833c0 0-.11-2.24-2.85-4.079z" fill="#ff0219"></path>
    </g>
  </symbol>

  <symbol xmlns="http://www.w3.org/2000/svg" viewBox="0 0 81.814 81.814" id="desen">
    <defs>
      <clipPath id="a">
        <path fill="#fff" d="M0 0h81.814v81.814H0z"></path>
      </clipPath>
    </defs>
    <g clip-path="url(#a)">
      <path d="M80.11 10.227H13.636V1.7a1.7 1.7 0 00-1.7-1.7A11.946 11.946 0 000 11.931v57.952a11.946 11.946 0 0011.931 11.931H80.11a1.7 1.7 0 001.7-1.7V11.931a1.7 1.7 0 00-1.7-1.7m-76.7 1.7a8.54 8.54 0 016.818-8.352v54.493a11.933 11.933 0 00-6.819 3.468zm75 66.474H11.931a8.522 8.522 0 010-17.044 1.7 1.7 0 001.7-1.7V13.636h64.774z" fill="#fff"></path>
      <path d="M58.308 60.218c.2.748.8 2.695 2.693 8.63a2.487 2.487 0 002.327 2.084 2.375 2.375 0 002.277-1.971c1.922-6.008 2.54-7.981 2.738-8.738a1.707 1.707 0 00.087-.4 1.142 1.142 0 00.008-.154V23.66c0-2.1-1.215-3.2-2.414-3.2h-5.453c-1.135 0-2.36 1-2.36 3.2v36a1.159 1.159 0 00.008.155 1.7 1.7 0 00.085.4m5.017 4.688c-.4-1.257-.8-2.521-1.112-3.535h2.227c-.316 1.008-.714 2.268-1.115 3.535m1.708-6.944h-3.405V23.876h3.409z" fill="red"></path>
      <path d="M28.976 71.588H46.02a1.7 1.7 0 001.7-1.7v-47.73a1.7 1.7 0 00-1.7-1.7H28.976a1.7 1.7 0 00-1.7 1.7v47.725a1.7 1.7 0 001.7 1.7m15.34-47.725v44.316H30.68V64.77h1.711a1.704 1.704 0 100-3.409H30.68v-3.409h8.536a1.704 1.704 0 100-3.409H30.68v-3.409h1.711a1.704 1.704 0 100-3.409H30.68v-3.408h8.536a1.704 1.704 0 000-3.409H30.68V37.5h1.711a1.704 1.704 0 100-3.409H30.68v-3.41h8.536a1.704 1.704 0 100-3.409H30.68v-3.409z" fill="#fff"></path>
    </g>
  </symbol>

  <symbol xmlns="http://www.w3.org/2000/svg" viewBox="0 0 89.713 93.224" id="desa">
    <defs>
      <clipPath id="a">
        <path fill="#fff" d="M0 0h89.713v93.224H0z"></path>
      </clipPath>
    </defs>
    <g clip-path="url(#a)" fill="#fff">
      <path d="M84.843 39.865a39.657 39.657 0 00-24.28-31.32h18.885a5.221 5.221 0 008.752 2.254 5.294 5.294 0 00-.029-7.445 5.362 5.362 0 00-7.432.022 5.183 5.183 0 00-1.291 2.254H51.586L51.57-.001 36.918.025l.015 5.605H10.266a5.222 5.222 0 00-1.314-2.275 5.364 5.364 0 00-7.434.02 5.288 5.288 0 00.026 7.443 5.2 5.2 0 008.725-2.273H30.3A39.629 39.629 0 006.029 39.868H2.343l.028 9.9 9.915-.009-.025-9.9h-3.3a36.736 36.736 0 0127.978-30.4l.013 5.286 14.655-.023-.007-5.713a36.763 36.763 0 0130.307 30.859H78.8l.028 9.9 9.915-.009-.023-9.9zM82.806 5.424a2.325 2.325 0 013.3-.007 2.344 2.344 0 11-3.3.007M6.9 8.754a2.349 2.349 0 01-3.309-3.33 2.322 2.322 0 013.3-.007A2.373 2.373 0 016.9 8.754m2.454 34.025l.012 4.071h-4.09l-.01-4.071zm39.334-30.956l-8.825.015-.007-2.923v-.37l-.006-2.579V5.63l-.007-2.7 8.825-.015.007 2.712v.085l.007 2.83v.092zm33.048 35.03l-.01-4.071h4.088l.01 4.071z"></path>
      <path d="M41.948 17.463L22.835 56.7l1.075.7c.054.035 5.406 3.558 7.913 7.73a33.944 33.944 0 013.667 9.463h-2.376v4.791h-3.005v13.837h29V79.386h-3.01v-4.791h-2.375a33.953 33.953 0 013.67-9.453c2.494-4.153 7.853-7.689 7.909-7.724l1.075-.7-19.1-39.251zm2.658 30.063a2.669 2.669 0 11-2.668 2.669 2.673 2.673 0 012.668-2.669M56.195 82.3v8.009H33.02V82.3h23.175zM36.03 79.386v-1.877h17.156v1.877zm18.866-15.744a37.068 37.068 0 00-4.161 10.953H38.476a37.064 37.064 0 00-4.16-10.963 30.463 30.463 0 00-7.753-7.931l16.586-34.049v23.18a5.583 5.583 0 102.914 0v-23.2l16.588 34.085a30.4 30.4 0 00-7.756 7.925"></path>
    </g>
  </symbol>

  <symbol xmlns="http://www.w3.org/2000/svg" viewBox="0 0 80.511 82.481" id="arr">
    <path d="M42.266 0l-9.751 9.406L56.2 34.486H0v14.866h56.358L33.908 73.97l11.3 8.511 35.3-41.451z" fill="#000"></path>
  </symbol>

  <symbol xmlns="http://www.w3.org/2000/svg" viewBox="0 0 25.249 55.534" id="arrowdd">
    <path d="M12.167.001v52.668m12.07-10.018L12.38 53.483 1.036 42.651" fill="none" stroke="#fff" stroke-width="3"></path>
  </symbol>
  

  <symbol xmlns="http://www.w3.org/2000/svg" viewBox="0 0 55.534 25.248" id="arro1">
    <path d="M55.534 12.167H2.866m10.018 12.07L2.052 12.38 12.884 1.036" fill="none" stroke="#000" stroke-width="3"></path>
  </symbol>

  <symbol xmlns="http://www.w3.org/2000/svg" viewBox="0 0 55.534 25.248" id="arro">
    <path d="M.001 13.081h52.668M42.651 1.011l10.832 11.857-10.832 11.344" fill="none" stroke="#000" stroke-width="3"></path>
  </symbol>

  <symbol xmlns="http://www.w3.org/2000/svg" viewBox="0 0 55.534 25.248" id="arrow-w">
    <path d="M.001 13.081h52.668M42.651 1.011l10.832 11.857-10.832 11.344" fill="none" stroke="#fff" stroke-width="3"></path>
  </symbol>


  
</svg>
